<svg width="24" height="24" viewBox="0 0 24 24" fill="none" xmlns="http://www.w3.org/2000/svg">
<path d="M9 17C9 18.1046 8.10457 19 7 19C5.89543 19 5 18.1046 5 17C5 15.8954 5.89543 15 7 15C8.10457 15 9 15.8954 9 17Z" stroke="#171719" stroke-width="1.5"/>
<path d="M19 17C19 18.1046 18.1046 19 17 19C15.8954 19 15 18.1046 15 17C15 15.8954 15.8954 15 17 15C18.1046 15 19 15.8954 19 17Z" stroke="#171719" stroke-width="1.5"/>
<path d="M2.00002 10H18M2.00002 10C2.00002 10.78 1.98003 13.04 2.00401 15.26C2.03999 15.98 2.15989 16.58 5.00173 17M2.00002 10C2.21586 8.26 3.15514 6.2 3.63477 5.42M9.00002 10V5M14.9901 17H8.99469M2.016 5H12.2322C12.2322 5 12.7718 5 13.2514 5.048C14.1508 5.132 14.9062 5.54 15.6616 6.56C16.4615 7.64 17.0765 9.008 17.8919 9.74C19.2469 10.9564 21.8249 10.58 21.9688 13.16C22.0048 14.48 22.0048 15.92 21.9448 16.16C21.8485 16.8667 21.3036 16.9821 20.6258 17C20.0376 17.0156 19.3285 16.9721 18.9831 17" stroke="#171719" stroke-width="1.5" stroke-linecap="round"/>
</svg>
