<svg width="16" height="16" viewBox="0 0 16 16" fill="none" xmlns="http://www.w3.org/2000/svg">
<g clip-path="url(#clip0_875_22267)">
<path d="M16 8C16 3.58172 12.4183 0 8 0C3.58172 0 0 3.58172 0 8C0 12.4183 3.58172 16 8 16C12.4183 16 16 12.4183 16 8Z" fill="#4880ED"/>
<path d="M8.10164 12.1172C7.50008 12.1172 6.94929 11.9863 6.44929 11.7246C5.94929 11.459 5.54305 11.0195 5.23055 10.4062C4.92195 9.78906 4.76961 8.98438 4.77351 7.99219C4.77351 7.03516 4.91219 6.21289 5.18953 5.52539C5.46687 4.83398 5.85945 4.30664 6.36726 3.94336C6.87898 3.58008 7.48055 3.39844 8.17195 3.39844C8.70711 3.39844 9.18562 3.50195 9.6075 3.70898C10.0333 3.91602 10.3771 4.20312 10.6388 4.57031C10.9005 4.93359 11.0626 5.34375 11.1251 5.80078H9.61336C9.53523 5.47266 9.36922 5.21094 9.11531 5.01562C8.86531 4.82031 8.55086 4.72266 8.17195 4.72266C7.7657 4.72266 7.41805 4.83789 7.12898 5.06836C6.84383 5.29883 6.62508 5.62891 6.47273 6.05859C6.32429 6.48828 6.25008 7 6.25008 7.59375H6.33211C6.54695 7.23047 6.84773 6.94727 7.23445 6.74414C7.62117 6.53711 8.04695 6.43359 8.51179 6.43359C9.0157 6.43359 9.47273 6.55273 9.88289 6.79102C10.2931 7.02539 10.6153 7.35156 10.8497 7.76953C11.088 8.1875 11.2071 8.66016 11.2071 9.1875C11.2071 9.74219 11.0763 10.2422 10.8146 10.6875C10.5567 11.1328 10.1915 11.4824 9.71883 11.7363C9.25008 11.9902 8.71101 12.1172 8.10164 12.1172ZM8.0782 10.8867C8.38679 10.8867 8.66609 10.8125 8.91609 10.6641C9.17 10.5156 9.36922 10.3145 9.51375 10.0605C9.65828 9.80664 9.73055 9.52734 9.73055 9.22266C9.73055 8.92578 9.66023 8.65234 9.51961 8.40234C9.37898 8.15234 9.18367 7.95508 8.93367 7.81055C8.68367 7.66602 8.40633 7.59375 8.10164 7.59375C7.79305 7.59375 7.50984 7.66797 7.25203 7.81641C6.99422 7.96484 6.79109 8.16602 6.64265 8.41992C6.49422 8.66992 6.41805 8.94141 6.41414 9.23438C6.41805 9.53125 6.49226 9.80664 6.63679 10.0605C6.78133 10.3105 6.97859 10.5117 7.22859 10.6641C7.4825 10.8125 7.7657 10.8867 8.0782 10.8867Z" fill="#F5F6FA"/>
</g>
<defs>
<clipPath id="clip0_875_22267">
<rect width="16" height="16" fill="white"/>
</clipPath>
</defs>
</svg>
