<svg width="16" height="16" viewBox="0 0 16 16" fill="none" xmlns="http://www.w3.org/2000/svg">
<g clip-path="url(#clip0_875_22276)">
<path d="M16 8C16 3.58172 12.4183 0 8 0C3.58172 0 0 3.58172 0 8C0 12.4183 3.58172 16 8 16C12.4183 16 16 12.4183 16 8Z" fill="#4880ED"/>
<path d="M7.9961 12.1172C7.37501 12.1172 6.82032 12.0156 6.33204 11.8125C5.84376 11.6055 5.46094 11.3203 5.1836 10.957C4.91016 10.5938 4.77344 10.1836 4.77344 9.72656C4.77344 9.375 4.85352 9.04688 5.01368 8.74219C5.17383 8.4375 5.39258 8.18555 5.66993 7.98633C5.94727 7.78711 6.25391 7.66016 6.58985 7.60547V7.55859C6.29688 7.49609 6.03712 7.375 5.81055 7.19531C5.58399 7.01562 5.40626 6.79297 5.27735 6.52734C5.15235 6.26172 5.08985 5.97656 5.08985 5.67188C5.08985 5.23828 5.21485 4.84961 5.46485 4.50586C5.71485 4.1582 6.06055 3.88672 6.50196 3.69141C6.94727 3.49609 7.44532 3.39844 7.9961 3.39844C8.54298 3.39844 9.03712 3.49609 9.47852 3.69141C9.91993 3.88672 10.2656 4.1582 10.5156 4.50586C10.7656 4.85352 10.8906 5.24219 10.8906 5.67188C10.8906 5.97656 10.8262 6.26172 10.6973 6.52734C10.5723 6.79297 10.3945 7.01562 10.1641 7.19531C9.93751 7.375 9.67969 7.49609 9.39063 7.55859V7.60547C9.73048 7.66016 10.0391 7.78711 10.3164 7.98633C10.5938 8.18555 10.8125 8.4375 10.9727 8.74219C11.1367 9.04688 11.2188 9.375 11.2188 9.72656C11.2188 10.1836 11.0801 10.5938 10.8027 10.957C10.5293 11.3203 10.1465 11.6055 9.6543 11.8125C9.16602 12.0156 8.61329 12.1172 7.9961 12.1172ZM7.9961 10.9102C8.32422 10.9102 8.61329 10.8555 8.86329 10.7461C9.11329 10.6328 9.30665 10.4766 9.44337 10.2773C9.58008 10.0742 9.64844 9.84375 9.64844 9.58594C9.64844 9.32422 9.57618 9.08789 9.43165 8.87695C9.29102 8.66602 9.09376 8.50195 8.83985 8.38477C8.58985 8.26367 8.3086 8.20312 7.9961 8.20312C7.67969 8.20312 7.39454 8.26367 7.14063 8.38477C6.89063 8.50195 6.69337 8.66602 6.54883 8.87695C6.40821 9.08789 6.33985 9.32422 6.34376 9.58594C6.33985 9.84375 6.4043 10.0742 6.53712 10.2773C6.67383 10.4766 6.86719 10.6328 7.11719 10.7461C7.3711 10.8555 7.66407 10.9102 7.9961 10.9102ZM7.9961 7.06641C8.26563 7.06641 8.50782 7.01367 8.72266 6.9082C8.93751 6.80273 9.10352 6.6543 9.22071 6.46289C9.3418 6.27148 9.40235 6.05469 9.40235 5.8125C9.40235 5.57812 9.3418 5.36914 9.22071 5.18555C9.10352 4.99805 8.93751 4.85352 8.72266 4.75195C8.51172 4.64648 8.26954 4.59375 7.9961 4.59375C7.71876 4.59375 7.47266 4.64453 7.25782 4.74609C7.04298 4.84766 6.87501 4.99219 6.75391 5.17969C6.63672 5.36328 6.57813 5.57422 6.57813 5.8125C6.57813 6.05469 6.63868 6.27148 6.75977 6.46289C6.88087 6.6543 7.04883 6.80273 7.26368 6.9082C7.47852 7.01367 7.72266 7.06641 7.9961 7.06641Z" fill="#F5F6FA"/>
</g>
<defs>
<clipPath id="clip0_875_22276">
<rect width="16" height="16" fill="white"/>
</clipPath>
</defs>
</svg>
