<svg width="32" height="32" viewBox="0 0 32 32" fill="none" xmlns="http://www.w3.org/2000/svg">
<g clip-path="url(#clip0_764_17250)">
<path d="M31.1969 16.0008C31.1969 7.60605 24.3916 0.800781 15.9969 0.800781C7.60215 0.800781 0.796875 7.60605 0.796875 16.0008C0.796875 24.3955 7.60215 31.2008 15.9969 31.2008C24.3916 31.2008 31.1969 24.3955 31.1969 16.0008Z" fill="#EDF3FF"/>
<path d="M31.1969 16.0008C31.1969 7.60605 24.3916 0.800781 15.9969 0.800781C7.60215 0.800781 0.796875 7.60605 0.796875 16.0008C0.796875 24.3955 7.60215 31.2008 15.9969 31.2008C24.3916 31.2008 31.1969 24.3955 31.1969 16.0008Z" stroke="#9DBEFF" stroke-width="1.6"/>
<path d="M12.3224 19.2148L15.8224 15.8379C16.2007 15.4596 16.4923 15.1497 16.6974 14.9082C16.907 14.6621 17.0666 14.4206 17.1759 14.1836C17.2853 13.9421 17.34 13.6868 17.34 13.418C17.34 13.1172 17.2671 12.8529 17.1212 12.625C16.9754 12.3971 16.7726 12.2217 16.5128 12.0986C16.2576 11.9756 15.9682 11.9141 15.6447 11.9141C15.3074 11.9141 15.0112 11.9824 14.756 12.1191C14.5054 12.2513 14.3117 12.4427 14.175 12.6934C14.0382 12.9395 13.9722 13.2266 13.9767 13.5547H12.2814C12.2768 12.9395 12.4181 12.3994 12.7052 11.9346C12.9923 11.4652 13.3911 11.1029 13.9015 10.8477C14.4165 10.5924 15.0021 10.4648 15.6583 10.4648C16.3237 10.4648 16.9116 10.5879 17.422 10.834C17.937 11.0801 18.3358 11.4219 18.6183 11.8594C18.9054 12.2923 19.049 12.7845 19.049 13.3359C19.049 13.7188 18.9738 14.0879 18.8234 14.4434C18.6776 14.7988 18.4269 15.193 18.0714 15.626C17.716 16.0544 17.2124 16.5762 16.5607 17.1914L14.797 18.9414V19.0098H19.1994V20.5H12.3224V19.2148Z" fill="#C5D9FF"/>
</g>
<defs>
<clipPath id="clip0_764_17250">
<rect width="32" height="32" fill="white"/>
</clipPath>
</defs>
</svg>
