<svg width="32" height="32" viewBox="0 0 32 32" fill="none" xmlns="http://www.w3.org/2000/svg">
<g clip-path="url(#clip0_764_17254)">
<path d="M31.1969 16.0008C31.1969 7.60605 24.3916 0.800781 15.9969 0.800781C7.60215 0.800781 0.796875 7.60605 0.796875 16.0008C0.796875 24.3955 7.60215 31.2008 15.9969 31.2008C24.3916 31.2008 31.1969 24.3955 31.1969 16.0008Z" fill="#EDF3FF"/>
<path d="M31.1969 16.0008C31.1969 7.60605 24.3916 0.800781 15.9969 0.800781C7.60215 0.800781 0.796875 7.60605 0.796875 16.0008C0.796875 24.3955 7.60215 31.2008 15.9969 31.2008C24.3916 31.2008 31.1969 24.3955 31.1969 16.0008Z" stroke="#9DBEFF" stroke-width="1.6"/>
<path d="M15.914 20.6367C15.2168 20.6367 14.5924 20.5182 14.041 20.2812C13.4895 20.0443 13.0566 19.7139 12.7421 19.29C12.4277 18.8617 12.2636 18.3717 12.25 17.8203H14.041C14.0592 18.0801 14.1503 18.3102 14.3144 18.5107C14.483 18.7067 14.7063 18.8594 14.9843 18.9688C15.2623 19.0781 15.5722 19.1328 15.914 19.1328C16.274 19.1328 16.5953 19.0713 16.8779 18.9482C17.165 18.8206 17.3883 18.6452 17.5478 18.4219C17.7073 18.1986 17.7871 17.9434 17.7871 17.6562C17.7871 17.36 17.705 17.0957 17.541 16.8633C17.3769 16.6309 17.1399 16.4508 16.83 16.3232C16.5201 16.1911 16.1556 16.125 15.7363 16.125H14.8476V14.7578H15.7363C16.0826 14.7578 16.3903 14.6986 16.6591 14.5801C16.9326 14.457 17.1445 14.2861 17.2949 14.0674C17.4453 13.8441 17.5182 13.5911 17.5136 13.3086C17.5182 13.0352 17.4544 12.7936 17.3222 12.584C17.1946 12.3698 17.01 12.2057 16.7685 12.0918C16.527 11.9733 16.2467 11.9141 15.9277 11.9141C15.6178 11.9141 15.3284 11.971 15.0595 12.085C14.7952 12.1943 14.581 12.3516 14.4169 12.5566C14.2574 12.7617 14.1731 12.9987 14.164 13.2676H12.455C12.4687 12.7207 12.6282 12.2354 12.9335 11.8115C13.2434 11.3877 13.6604 11.0573 14.1845 10.8203C14.7132 10.5833 15.2988 10.4648 15.9414 10.4648C16.5931 10.4648 17.1695 10.5879 17.6709 10.834C18.1722 11.0755 18.5595 11.4059 18.833 11.8252C19.1064 12.2445 19.2408 12.707 19.2363 13.2129C19.2408 13.5775 19.1679 13.9079 19.0175 14.2041C18.8671 14.5003 18.6552 14.7464 18.3818 14.9424C18.1084 15.1383 17.7916 15.2728 17.4316 15.3457V15.4277C17.8919 15.4915 18.2861 15.6283 18.6142 15.8379C18.9423 16.043 19.1907 16.3096 19.3593 16.6377C19.5279 16.9658 19.61 17.3372 19.6054 17.752C19.61 18.2988 19.4528 18.7933 19.1337 19.2354C18.8193 19.6729 18.3795 20.0169 17.8144 20.2676C17.2539 20.5137 16.6204 20.6367 15.914 20.6367Z" fill="#C5D9FF"/>
</g>
<defs>
<clipPath id="clip0_764_17254">
<rect width="32" height="32" fill="white"/>
</clipPath>
</defs>
</svg>
