<svg width="32" height="32" viewBox="0 0 32 32" fill="none" xmlns="http://www.w3.org/2000/svg">
<g clip-path="url(#clip0_597_10745)">
<path d="M15.9971 0.800781C24.3918 0.800781 31.1973 7.60625 31.1973 16.001C31.1973 24.3957 24.3918 31.2012 15.9971 31.2012C7.60234 31.2012 0.796875 24.3957 0.796875 16.001C0.796875 7.60625 7.60234 0.800781 15.9971 0.800781Z" fill="#EDF3FF"/>
<path d="M15.9971 0.800781C24.3918 0.800781 31.1973 7.60625 31.1973 16.001C31.1973 24.3957 24.3918 31.2012 15.9971 31.2012C7.60234 31.2012 0.796875 24.3957 0.796875 16.001C0.796875 7.60625 7.60234 0.800781 15.9971 0.800781Z" stroke="#9DBEFF" stroke-width="1.6"/>
<path d="M16.0548 20.6367C15.353 20.6367 14.7104 20.484 14.1271 20.1787C13.5438 19.8688 13.0698 19.3561 12.7052 18.6406C12.3452 17.9206 12.1675 16.9818 12.172 15.8242C12.172 14.7077 12.3338 13.7484 12.6574 12.9463C12.9809 12.1396 13.4389 11.5244 14.0314 11.1006C14.6284 10.6768 15.3302 10.4648 16.1369 10.4648C16.7612 10.4648 17.3195 10.5856 17.8117 10.8271C18.3084 11.0687 18.7095 11.4036 19.0148 11.832C19.3201 12.2559 19.5093 12.7344 19.5822 13.2676H17.8185C17.7274 12.8848 17.5337 12.5794 17.2375 12.3516C16.9458 12.1237 16.5789 12.0098 16.1369 12.0098C15.6629 12.0098 15.2573 12.1442 14.9201 12.4131C14.5874 12.682 14.3322 13.0671 14.1544 13.5684C13.9813 14.0697 13.8947 14.6667 13.8947 15.3594H13.9904C14.241 14.9355 14.5919 14.6051 15.0431 14.3682C15.4943 14.1266 15.991 14.0059 16.5333 14.0059C17.1212 14.0059 17.6544 14.1449 18.133 14.4229C18.6115 14.6963 18.9875 15.0768 19.2609 15.5645C19.5389 16.0521 19.6779 16.6035 19.6779 17.2188C19.6779 17.8659 19.5252 18.4492 19.2199 18.9688C18.9191 19.4883 18.493 19.8962 17.9416 20.1924C17.3947 20.4886 16.7658 20.6367 16.0548 20.6367ZM16.0275 19.2012C16.3875 19.2012 16.7134 19.1146 17.005 18.9414C17.3013 18.7682 17.5337 18.5335 17.7023 18.2373C17.8709 17.9411 17.9552 17.6152 17.9552 17.2598C17.9552 16.9134 17.8732 16.5944 17.7091 16.3027C17.5451 16.0111 17.3172 15.7809 17.0255 15.6123C16.7339 15.4437 16.4103 15.3594 16.0548 15.3594C15.6948 15.3594 15.3644 15.446 15.0636 15.6191C14.7628 15.7923 14.5259 16.027 14.3527 16.3232C14.1795 16.6149 14.0906 16.9316 14.0861 17.2734C14.0906 17.6198 14.1772 17.9411 14.3459 18.2373C14.5145 18.529 14.7446 18.7637 15.0363 18.9414C15.3325 19.1146 15.6629 19.2012 16.0275 19.2012Z" fill="#C5D9FF"/>
</g>
<defs>
<clipPath id="clip0_597_10745">
<rect width="32" height="32" fill="white"/>
</clipPath>
</defs>
</svg>
