<svg width="131" height="136" viewBox="0 0 131 136" fill="none" xmlns="http://www.w3.org/2000/svg">
<path d="M64.1248 0.0302975C67.0639 -0.314749 73.7258 2.38055 76.7194 3.38142L95.4951 9.65283L116.899 16.6608C119.064 17.3735 125.467 19.1925 127.001 20.2502C128.542 21.3313 129.601 22.9705 129.953 24.82C130.247 26.405 130.101 34.6659 130.056 36.6605C129.554 58.8588 123.89 80.7944 111.52 99.408C102.529 113.005 90.2663 124.128 75.8601 131.755C73.5505 132.986 68.9326 135.334 66.4437 135.836C62.7767 136.087 61.3737 135.23 58.0898 133.687C51.4088 130.555 45.1212 126.645 39.3584 122.038C11.4128 99.6763 -0.546405 65.8301 0.0191109 30.7634C0.0860484 26.6125 -0.590496 21.9428 4.10682 19.6464C5.1555 19.1338 6.91474 18.7077 8.08827 18.3319C10.204 17.6495 12.3165 16.9562 14.4253 16.252L39.3579 8.10689L55.5302 2.68681C57.502 2.02115 62.4035 0.195251 64.1248 0.0302975Z" fill="#4880ED"/>
<path d="M93.8444 32.707C101.526 32.7325 107.22 42.456 101.227 48.4434C97.781 51.8867 94.3199 55.32 90.8734 58.763L75.0196 74.6511L67.8557 81.8283C64.8873 84.7873 62.9668 87.3599 58.443 87.3825C53.8782 87.4051 51.2132 83.7979 48.2921 80.864C45.4605 77.99 42.6016 75.1438 39.7156 72.3242C38.2334 70.846 36.7427 69.3771 35.243 67.917C32.5493 65.2886 30.0304 63.3296 29.9021 59.2276C29.7467 54.2567 34.5662 49.3083 39.5228 49.2919C41.1016 49.2924 42.6516 49.7147 44.0124 50.5153C45.6282 51.4761 49.0186 55.079 50.454 56.5177L58.6026 64.6081C65.7639 57.747 73.0752 50.1639 80.1103 43.1139L85.5011 37.7162C88.3685 34.8496 89.5891 33.0741 93.8444 32.707Z" fill="white"/>
</svg>
