<svg width="141" height="139" viewBox="0 0 141 139" fill="none" xmlns="http://www.w3.org/2000/svg">
<path d="M108.473 9.97043C109.637 9.90243 120.443 10.1322 117.463 12.93C113.093 17.0302 108.581 21.3243 104.158 25.3908C103.535 25.9642 103.142 28.1572 103.73 28.8768C104.569 29.9016 105.525 30.8868 106.436 31.8571C108.29 33.848 110.157 35.8269 112.038 37.7939C113.005 38.8197 113.804 40.0224 114.785 41.0156C115.605 41.8446 117.234 42.3283 118.353 41.9395C120.114 41.3269 128.676 33.2325 130.702 31.354C131.363 30.7407 131.99 30.0132 132.695 29.4588C133.001 29.2197 133.426 28.9735 133.824 28.9924C134.177 29.0094 134.471 29.1568 134.687 29.4394C135.999 31.153 135.717 37.9726 135.324 40.1263C134.111 46.7034 130.343 52.5323 124.842 56.3369C117.556 61.3014 110.07 61.6302 101.727 60.0816C99.8771 61.8098 97.6206 63.6934 95.6975 65.3705L84.8945 74.7816C76.6283 81.9229 68.4005 89.1094 60.2126 96.3397C56.003 100.013 51.591 103.704 47.4512 107.415C47.3843 107.973 47.2642 108.616 47.1742 109.176C46.275 112.994 44.8579 116.007 42.0797 118.837C38.2547 122.792 32.9903 125.029 27.4882 125.035C22.1278 125.063 16.9819 122.933 13.2103 119.124C9.53908 115.405 7.50386 110.375 7.55565 105.149C7.60426 95.8496 13.9867 88.3088 22.9664 86.1094C25.4843 85.4932 27.7639 85.5848 30.3264 85.6114C31.1331 85.0523 32.6046 83.7082 33.3957 83.0216L38.7496 78.3705C44.401 73.5499 50.0153 68.6852 55.5913 63.7773C61.5689 58.5447 67.5787 53.3491 73.6203 48.1909C76.5037 45.7198 80.9449 42.1257 83.573 39.5648C83.4747 38.8022 83.3911 38.0377 83.3233 37.2716C82.8014 30.6823 85.272 23.7317 89.6362 18.8205C94.8358 12.9715 100.828 10.4841 108.473 9.97043ZM33.8066 97.6851C31.5217 95.7793 28.4989 95.0036 25.578 95.5761C20.2382 96.6213 16.7489 101.786 17.7729 107.131C18.7969 112.475 23.949 115.985 29.2968 114.983C33.9211 114.115 37.2924 110.108 37.3553 105.404C37.3952 102.428 36.0915 99.5923 33.8066 97.6851Z" fill="#4880ED"/>
<path d="M88.4437 47.2729C88.8607 47.2176 89.9896 47.11 90.3336 47.296C91.3191 47.8291 94.1108 50.343 94.4774 51.257C95.1693 52.9838 94.2025 54.9067 92.8903 56.0366C84.0277 63.6641 75.2222 71.3603 66.4048 79.0406L54.6947 89.2897C52.9976 90.7745 49.2077 94.4893 47.3398 95.1693C46.361 95.3128 45.8066 95.2317 44.8658 95.0591C42.0332 92.6313 39.1456 89.7625 42.8954 86.5033C52.1702 78.4389 61.4193 70.3445 70.684 62.2695L80.7764 53.5677C82.4831 52.077 86.7676 48.0097 88.4437 47.2729Z" fill="#0B2A65"/>
<path d="M133.116 57.3164C134.189 57.798 135.601 57.8941 136.753 58.147C137.842 58.3861 138.817 58.8244 139.408 59.8159C140.874 62.2754 141.028 73.744 140.212 76.97C140.032 77.6845 139.77 78.3366 139.182 78.8094C137.034 80.5373 128.857 81.0713 126.044 82.8682C125.408 83.2746 124.885 83.8006 124.522 84.4646C123.842 85.7091 123.711 87.2125 123.24 88.5446C122.713 90.0414 121.838 91.5289 121.558 93.0948C121.385 94.0709 121.502 95.0777 121.891 95.9888C122.389 97.1216 123.371 98.1124 124.105 99.1324C125.859 101.571 127.836 103.93 129.585 106.352C129.646 106.834 129.724 107.361 129.676 107.845C129.427 110.358 120.991 118.844 118.758 120.706C117.775 121.526 116.556 122.482 115.224 122.523C112.594 122.606 104.807 116.227 101.812 116.03C99.888 115.903 97.3181 117.72 95.6619 118.57C93.756 119.546 89.8473 120.791 88.4528 122.056C85.7634 124.493 86.2149 134.295 83.645 136.509C81.8268 138.074 71.9509 138.194 69.3252 137.965C67.6597 137.845 65.3155 137.818 63.7919 137.34C62.259 136.86 61.6791 133.658 61.2632 132.312C60.5622 130.042 59.8601 127.728 59.0271 125.51C58.3633 123.741 57.1338 122.899 55.3581 122.523C54.5474 122.331 53.5481 122.008 52.7427 121.758C51.3926 121.34 50.0628 120.858 48.7578 120.315C51.5429 116.356 52.5669 114.707 53.4341 109.906C54.6929 109.104 57.27 107.172 58.1341 106.055C62.3767 107.303 66.241 108.109 70.7117 108.002C81.2876 107.788 91.3335 103.333 98.5917 95.6381C104.332 89.5234 107.91 81.6968 108.78 73.3562C108.984 71.2543 108.915 69.4037 108.865 67.3007C118.055 67.475 126.914 64.2784 133.116 57.3164Z" fill="#9DBEFF"/>
<path d="M67.3945 0.00597145C69.4942 -0.0516692 76.7046 0.304533 78.123 1.22466C80.4034 2.70366 81.0609 11.7981 82.288 14.4629C82.6081 15.1583 83.4621 15.8842 84.0359 16.4126C80.4898 21.2953 78.2891 25.8813 77.6476 31.9532C72.7813 31.1327 67.7026 30.9417 62.8268 31.7994C52.8241 33.595 43.9475 39.298 38.1566 47.6495C31.985 56.4316 30.0231 66.0608 31.8589 76.5665C30.7268 77.3103 29.6404 78.2214 28.5874 79.0794C24.7414 79.0555 18.9601 80.4898 15.6292 82.4501C15.1553 78.9691 15.0159 76.6768 11.2682 75.3938C10.3119 75.1348 8.12846 74.322 7.23464 73.9262C3.95045 72.4722 -0.239521 72.9155 0.0106982 68.2673C0.100745 66.5963 -0.047738 65.0294 0.14484 63.3235C0.56745 59.5803 1.12048 55.8324 2.35325 52.2751C2.43639 52.0326 3.2399 51.3715 3.46781 51.1797C4.35765 51.0017 5.98461 50.8992 6.93873 50.7996C8.87886 50.5892 10.8179 50.3685 12.7557 50.1379C18.5298 49.4558 18.5949 48.5147 21.2649 43.3868C21.9861 42.0018 23.2088 40.3709 23.506 38.8141C23.6527 38.0411 23.62 37.245 23.4101 36.4866C22.8603 34.4642 20.3084 30.4251 19.2661 28.4502C17.3786 24.873 16.8043 24.4355 19.8614 21.0618C22.9033 17.7256 26.5732 14.3564 30.4314 12.0348C32.4945 10.7933 35.2557 13.6235 36.566 14.4639C38.2044 15.5142 43.578 20.033 45.2666 19.3164C46.5384 18.7766 53.1166 16.6944 54.0805 16.0617C54.8742 15.5296 55.5168 14.8015 55.9455 13.9476C57.0752 11.7408 57.488 7.33085 58.2923 4.86611C58.87 3.09599 58.8485 1.18269 61.1926 0.65755C63.2504 0.196425 65.338 0.142503 67.3945 0.00597145Z" fill="#9DBEFF"/>
</svg>
