<svg width="64" height="65" viewBox="0 0 64 65" fill="none" xmlns="http://www.w3.org/2000/svg">
<g clip-path="url(#clip0_579_9741)">
<path d="M64 32C64 14.3269 49.6731 0 32 0C14.3269 0 0 14.3269 0 32V33C0 50.6731 14.3269 65 32 65C49.6731 65 64 50.6731 64 33V32Z" fill="#9DBEFF"/>
<path d="M31.9776 50.4746C29.5496 50.4746 27.3755 50.062 25.4554 49.2368C23.5352 48.4116 22.0275 47.2611 20.9326 45.7852C19.8376 44.2935 19.2664 42.5876 19.2188 40.6674H25.4554C25.5189 41.572 25.8361 42.3734 26.4074 43.0716C26.9946 43.754 27.7722 44.2856 28.7402 44.6665C29.7083 45.0473 30.7874 45.2378 31.9776 45.2378C33.2313 45.2378 34.35 45.0235 35.3339 44.5951C36.3337 44.1507 37.1112 43.5398 37.6666 42.7622C38.222 41.9846 38.4998 41.0959 38.4998 40.0962C38.4998 39.0647 38.2141 38.1443 37.6428 37.3349C37.0715 36.5256 36.2464 35.8988 35.1673 35.4544C34.0882 34.9942 32.8187 34.7641 31.3587 34.7641H28.2642V30.0034H31.3587C32.5648 30.0034 33.6359 29.7971 34.5722 29.3845C35.5243 28.956 36.2623 28.3609 36.7859 27.5992C37.3096 26.8216 37.5634 25.9409 37.5476 24.957C37.5634 24.0048 37.3413 23.1638 36.8811 22.4338C36.4367 21.688 35.794 21.1167 34.953 20.7199C34.1119 20.3073 33.136 20.101 32.0252 20.101C30.9461 20.101 29.9384 20.2994 29.0021 20.6961C28.0817 21.077 27.3359 21.6245 26.7646 22.3386C26.2092 23.0527 25.9156 23.8779 25.8838 24.8142H19.9328C19.9804 22.9099 20.5358 21.2198 21.5991 19.744C22.6782 18.2682 24.1302 17.1176 25.9552 16.2924C27.7961 15.4673 29.8352 15.0547 32.0728 15.0547C34.3421 15.0547 36.3494 15.4831 38.0951 16.3401C39.8407 17.1811 41.1896 18.3316 42.1418 19.7916C43.0939 21.2516 43.562 22.8623 43.5462 24.6237C43.562 25.8933 43.3082 27.0438 42.7845 28.0753C42.2607 29.1068 41.5229 29.9637 40.5707 30.6461C39.6186 31.3285 38.5157 31.7966 37.262 32.0505V32.3361C38.8648 32.5583 40.2374 33.0344 41.3801 33.7644C42.5226 34.4785 43.3875 35.4068 43.9747 36.5494C44.5618 37.692 44.8475 38.9853 44.8316 40.4294C44.8475 42.3337 44.2999 44.0555 43.189 45.5948C42.0941 47.1183 40.5628 48.3164 38.595 49.1892C36.6431 50.0461 34.4373 50.4746 31.9776 50.4746Z" fill="#F5F6FA"/>
</g>
<defs>
<clipPath id="clip0_579_9741">
<rect width="64" height="65" fill="white"/>
</clipPath>
</defs>
</svg>
