<svg width="16" height="16" viewBox="0 0 16 16" fill="none" xmlns="http://www.w3.org/2000/svg">
<path d="M3.24605 3.24214C3.48036 3.00783 3.86026 3.00783 4.09457 3.24214L8.00363 7.15122L11.9127 3.24214C12.147 3.00783 12.5269 3.00783 12.7612 3.24214C12.9955 3.47646 12.9955 3.85636 12.7612 4.09067L8.85216 7.99974L12.7612 11.9088C12.9955 12.1431 12.9955 12.523 12.7612 12.7573C12.5269 12.9917 12.147 12.9917 11.9127 12.7573L8.00363 8.84827L4.09457 12.7573C3.86026 12.9917 3.48036 12.9917 3.24605 12.7573C3.01173 12.523 3.01173 12.1431 3.24605 11.9088L7.15511 7.99974L3.24605 4.09067C3.01173 3.85636 3.01173 3.47646 3.24605 3.24214Z" fill="white"/>
</svg>
