<svg width="16" height="16" viewBox="0 0 16 16" fill="none" xmlns="http://www.w3.org/2000/svg">
<g clip-path="url(#clip0_875_22291)">
<path d="M16 8C16 3.58172 12.4183 0 8 0C3.58172 0 0 3.58172 0 8C0 12.4183 3.58172 16 8 16C12.4183 16 16 12.4183 16 8Z" fill="#4880ED"/>
<path d="M5.08994 10.8984L8.08994 8.00391C8.41416 7.67969 8.66416 7.41406 8.83994 7.20703C9.01963 6.99609 9.15635 6.78906 9.2501 6.58594C9.34385 6.37891 9.39072 6.16016 9.39072 5.92969C9.39072 5.67188 9.32822 5.44531 9.20322 5.25C9.07822 5.05469 8.90439 4.9043 8.68174 4.79883C8.46299 4.69336 8.21494 4.64062 7.9376 4.64062C7.64853 4.64062 7.39463 4.69922 7.17588 4.81641C6.96103 4.92969 6.79502 5.09375 6.67783 5.30859C6.56064 5.51953 6.504 5.76562 6.50791 6.04688H5.05478C5.05088 5.51953 5.17197 5.05664 5.41807 4.6582C5.66416 4.25586 6.00596 3.94531 6.44346 3.72656C6.88486 3.50781 7.38682 3.39844 7.94932 3.39844C8.51963 3.39844 9.02353 3.50391 9.46103 3.71484C9.90244 3.92578 10.2442 4.21875 10.4864 4.59375C10.7325 4.96484 10.8555 5.38672 10.8555 5.85938C10.8555 6.1875 10.7911 6.50391 10.6622 6.80859C10.5372 7.11328 10.3223 7.45117 10.0176 7.82227C9.71299 8.18945 9.28135 8.63672 8.72275 9.16406L7.21103 10.6641V10.7227H10.9844V12H5.08994V10.8984Z" fill="#F5F6FA"/>
</g>
<defs>
<clipPath id="clip0_875_22291">
<rect width="16" height="16" fill="white"/>
</clipPath>
</defs>
</svg>
