<svg width="16" height="16" viewBox="0 0 16 16" fill="none" xmlns="http://www.w3.org/2000/svg">
<g clip-path="url(#clip0_875_22288)">
<path d="M16 8C16 3.58172 12.4183 0 8 0C3.58172 0 0 3.58172 0 8C0 12.4183 3.58172 16 8 16C12.4183 16 16 12.4183 16 8Z" fill="#4880ED"/>
<path d="M7.99218 12.1172C7.39452 12.1172 6.85937 12.0156 6.38671 11.8125C5.91406 11.6094 5.54296 11.3262 5.27343 10.9629C5.0039 10.5957 4.86327 10.1758 4.85156 9.70312H6.38671C6.40234 9.92578 6.48046 10.123 6.62109 10.2949C6.76562 10.4629 6.95702 10.5938 7.19531 10.6875C7.43359 10.7812 7.69921 10.8281 7.99218 10.8281C8.30077 10.8281 8.57616 10.7754 8.81835 10.6699C9.06445 10.5605 9.25585 10.4102 9.39257 10.2188C9.52929 10.0273 9.59765 9.80859 9.59765 9.5625C9.59765 9.30859 9.52734 9.08203 9.38671 8.88281C9.24609 8.68359 9.04296 8.5293 8.77734 8.41992C8.51171 8.30664 8.19921 8.25 7.83984 8.25H7.07812V7.07812H7.83984C8.13671 7.07812 8.40038 7.02734 8.63085 6.92578C8.86523 6.82031 9.04687 6.67383 9.17577 6.48633C9.30468 6.29492 9.36718 6.07812 9.36327 5.83594C9.36718 5.60156 9.31249 5.39453 9.19921 5.21484C9.08984 5.03125 8.93163 4.89062 8.7246 4.79297C8.51757 4.69141 8.27734 4.64062 8.0039 4.64062C7.73827 4.64062 7.49023 4.68945 7.25976 4.78711C7.0332 4.88086 6.8496 5.01562 6.70898 5.19141C6.57226 5.36719 6.49999 5.57031 6.49218 5.80078H5.02734C5.03906 5.33203 5.17577 4.91602 5.43749 4.55273C5.70312 4.18945 6.06054 3.90625 6.50976 3.70312C6.96288 3.5 7.46484 3.39844 8.01562 3.39844C8.57421 3.39844 9.06835 3.50391 9.49804 3.71484C9.92773 3.92188 10.2597 4.20508 10.4941 4.56445C10.7285 4.92383 10.8437 5.32031 10.8398 5.75391C10.8437 6.06641 10.7812 6.34961 10.6523 6.60352C10.5234 6.85742 10.3418 7.06836 10.1074 7.23633C9.87304 7.4043 9.60156 7.51953 9.29296 7.58203V7.65234C9.68749 7.70703 10.0253 7.82422 10.3066 8.00391C10.5878 8.17969 10.8007 8.4082 10.9453 8.68945C11.0898 8.9707 11.1601 9.28906 11.1562 9.64453C11.1601 10.1133 11.0253 10.5371 10.7519 10.916C10.4824 11.291 10.1054 11.5859 9.62109 11.8008C9.14062 12.0117 8.59765 12.1172 7.99218 12.1172Z" fill="#F5F6FA"/>
</g>
<defs>
<clipPath id="clip0_875_22288">
<rect width="16" height="16" fill="white"/>
</clipPath>
</defs>
</svg>
