<svg width="16" height="16" viewBox="0 0 16 16" fill="none" xmlns="http://www.w3.org/2000/svg">
<g clip-path="url(#clip0_875_22294)">
<path d="M16 8C16 3.58172 12.4183 0 8 0C3.58172 0 0 3.58172 0 8C0 12.4183 3.58172 16 8 16C12.4183 16 16 12.4183 16 8Z" fill="#4880ED"/>
<path d="M8.01172 12.1172C7.45312 12.1172 6.94922 12.0137 6.5 11.8066C6.05078 11.5996 5.69531 11.3145 5.43359 10.9512C5.17578 10.584 5.03906 10.168 5.02344 9.70312H6.51172C6.52734 9.9297 6.60156 10.1328 6.73438 10.3125C6.87109 10.4922 7.05078 10.6328 7.27344 10.7344C7.5 10.8359 7.74609 10.8867 8.01172 10.8867C8.32422 10.8867 8.60352 10.8164 8.84961 10.6758C9.09961 10.5352 9.29297 10.3418 9.42969 10.0957C9.57031 9.84571 9.64062 9.56641 9.64062 9.25781C9.64062 8.9375 9.56836 8.65234 9.42383 8.40234C9.2793 8.14844 9.08008 7.95118 8.82617 7.81056C8.57227 7.66603 8.28516 7.59375 7.96484 7.59375C7.29297 7.58203 6.82422 7.82422 6.55859 8.32031H5.14062L5.65625 3.51562H10.6719V4.79298H6.91016L6.65234 7.04298H6.73438C6.90234 6.85157 7.13281 6.69728 7.42578 6.58009C7.71875 6.45899 8.03516 6.39844 8.375 6.39844C8.89453 6.39844 9.36328 6.51954 9.78125 6.76173C10.1992 7.00392 10.5254 7.33985 10.7598 7.76954C10.998 8.19531 11.1172 8.67579 11.1172 9.21095C11.1172 9.76954 10.9844 10.2695 10.7188 10.7109C10.457 11.1523 10.0898 11.498 9.61719 11.748C9.14844 11.9941 8.61328 12.1172 8.01172 12.1172Z" fill="#F5F6FA"/>
</g>
<defs>
<clipPath id="clip0_875_22294">
<rect width="16" height="16" fill="white"/>
</clipPath>
</defs>
</svg>
