<svg width="16" height="16" viewBox="0 0 16 16" fill="none" xmlns="http://www.w3.org/2000/svg">
<g clip-path="url(#clip0_875_22270)">
<path d="M16 8C16 3.58172 12.4183 0 8 0C3.58172 0 0 3.58172 0 8C0 12.4183 3.58172 16 8 16C12.4183 16 16 12.4183 16 8Z" fill="#4880ED"/>
<path d="M7.89453 3.39844C8.49609 3.39844 9.04688 3.53125 9.54688 3.79688C10.0469 4.05859 10.4512 4.49414 10.7598 5.10352C11.0723 5.71289 11.2305 6.51172 11.2344 7.5C11.2344 8.46484 11.0957 9.29492 10.8184 9.99023C10.541 10.6816 10.1465 11.209 9.63477 11.5723C9.12305 11.9355 8.51953 12.1172 7.82422 12.1172C7.28906 12.1172 6.80859 12.0137 6.38281 11.8066C5.95703 11.5996 5.61328 11.3125 5.35156 10.9453C5.09375 10.5781 4.93359 10.1602 4.87109 9.69141H6.38281C6.46094 10.0312 6.625 10.3008 6.875 10.5C7.12891 10.6953 7.44531 10.793 7.82422 10.793C8.23047 10.793 8.57812 10.6777 8.86719 10.4473C9.15625 10.2168 9.375 9.88477 9.52344 9.45117C9.67578 9.01367 9.75391 8.49219 9.75781 7.88672H9.66406C9.44922 8.25391 9.14844 8.54102 8.76172 8.74805C8.37891 8.95508 7.95312 9.05859 7.48438 9.05859C6.98438 9.05859 6.5293 8.94141 6.11914 8.70703C5.71289 8.46875 5.39062 8.14062 5.15234 7.72266C4.91406 7.30469 4.79297 6.83203 4.78906 6.30469C4.78906 5.75391 4.91797 5.25781 5.17578 4.81641C5.43359 4.375 5.79688 4.0293 6.26562 3.7793C6.73828 3.52539 7.28125 3.39844 7.89453 3.39844ZM7.92969 4.62891C7.625 4.62891 7.3457 4.70117 7.0918 4.8457C6.83789 4.99023 6.63867 5.1875 6.49414 5.4375C6.34961 5.68359 6.27734 5.95312 6.27734 6.24609C6.27734 6.55469 6.3457 6.83398 6.48242 7.08398C6.62305 7.33398 6.81641 7.5332 7.0625 7.68164C7.3125 7.82617 7.59375 7.89844 7.90625 7.89844C8.20703 7.89844 8.48438 7.82422 8.73828 7.67578C8.99609 7.52734 9.19922 7.33008 9.34766 7.08398C9.49609 6.83398 9.57031 6.56641 9.57031 6.28125C9.57031 5.98828 9.5 5.7168 9.35938 5.4668C9.21875 5.21289 9.02344 5.00977 8.77344 4.85742C8.52344 4.70508 8.24219 4.62891 7.92969 4.62891Z" fill="#F5F6FA"/>
</g>
<defs>
<clipPath id="clip0_875_22270">
<rect width="16" height="16" fill="white"/>
</clipPath>
</defs>
</svg>
