<svg width="16" height="16" viewBox="0 0 16 16" fill="none" xmlns="http://www.w3.org/2000/svg">
<g clip-path="url(#clip0_512_9864)">
<ellipse cx="10.3333" cy="7.33333" rx="4.33333" ry="1.33333" stroke="#4880ED"/>
<path d="M14.6667 10.332C14.6667 11.0684 12.7266 11.6654 10.3333 11.6654C7.9401 11.6654 6 11.0684 6 10.332" stroke="#4880ED"/>
<path d="M14.6667 7.33203V13.1987C14.6667 14.0087 12.7266 14.6654 10.3333 14.6654C7.9401 14.6654 6 14.0087 6 13.1987V7.33203" stroke="#4880ED"/>
<ellipse cx="5.66927" cy="2.66536" rx="4.33333" ry="1.33333" stroke="#4880ED"/>
<path d="M4.0026 7.33333C2.7414 7.17985 1.58255 6.78303 1.33594 6M4.0026 10.6667C2.7414 10.5132 1.58255 10.1164 1.33594 9.33333" stroke="#4880ED" stroke-linecap="round"/>
<path d="M4.0026 13.9974C2.7414 13.8439 1.58255 13.4471 1.33594 12.6641L1.33594 2.66406" stroke="#4880ED" stroke-linecap="round"/>
<path d="M10 3.9974V2.66406" stroke="#4880ED" stroke-linecap="round"/>
</g>
<defs>
<clipPath id="clip0_512_9864">
<rect width="16" height="16" fill="white"/>
</clipPath>
</defs>
</svg>
