<svg width="56" height="70" viewBox="0 0 56 70" fill="none" xmlns="http://www.w3.org/2000/svg">
<g clip-path="url(#clip0_764_16882)">
<path d="M32.8017 67.5382C31.5432 69.1572 29.9356 69.9867 28.0593 70.0038C26.1829 70.021 24.4953 69.2201 23.2882 67.6698L6.21188 45.7824C-2.91265 34.0892 -1.92869 17.6479 8.79192 7.57948C19.4496 -2.43175 36.1255 -2.55189 46.909 7.34493C57.7211 17.2646 59.0655 33.7803 49.9524 45.4849L32.796 67.5325L32.8017 67.5382ZM38.4423 27.8937C38.4423 22.1158 33.7571 17.4305 27.9792 17.4305C22.2013 17.4305 17.516 22.1158 17.516 27.8937C17.516 33.6716 22.2013 38.3569 27.9792 38.3569C33.7571 38.3569 38.4423 33.6716 38.4423 27.8937Z" fill="#4880ED"/>
<path d="M27.9766 39.8945C34.604 39.8945 39.9766 34.5219 39.9766 27.8945C39.9766 21.2671 34.604 15.8945 27.9766 15.8945C21.3491 15.8945 15.9766 21.2671 15.9766 27.8945C15.9766 34.5219 21.3491 39.8945 27.9766 39.8945Z" fill="white"/>
</g>
<defs>
<clipPath id="clip0_764_16882">
<rect width="56" height="70.0043" fill="white"/>
</clipPath>
</defs>
</svg>
