<svg width="14" height="14" viewBox="0 0 14 14" fill="none" xmlns="http://www.w3.org/2000/svg">
<path d="M9.33854 1.16797V3.5013M4.67188 1.16797V3.5013" stroke="#989BA2" stroke-width="0.875" stroke-linecap="round" stroke-linejoin="round"/>
<path d="M7.58333 2.33594H6.41667C4.21678 2.33594 3.11684 2.33594 2.43342 3.01936C1.75 3.70277 1.75 4.80272 1.75 7.0026V8.16927C1.75 10.3692 1.75 11.4691 2.43342 12.1525C3.11684 12.8359 4.21678 12.8359 6.41667 12.8359H7.58333C9.78322 12.8359 10.8832 12.8359 11.5666 12.1525C12.25 11.4691 12.25 10.3692 12.25 8.16927V7.0026C12.25 4.80272 12.25 3.70277 11.5666 3.01936C10.8832 2.33594 9.78322 2.33594 7.58333 2.33594Z" stroke="#989BA2" stroke-width="0.875" stroke-linecap="round" stroke-linejoin="round"/>
<path d="M1.75 5.83594H12.25" stroke="#989BA2" stroke-width="0.875" stroke-linecap="round" stroke-linejoin="round"/>
<path d="M7.00259 8.16797H7.00783M7.00259 10.5013H7.00783M9.33331 8.16797H9.33854M4.67188 8.16797H4.67711M4.67188 10.5013H4.67711" stroke="#989BA2" stroke-width="1.16667" stroke-linecap="round" stroke-linejoin="round"/>
</svg>
