<svg width="132" height="175" viewBox="0 0 132 175" fill="none" xmlns="http://www.w3.org/2000/svg">
<path d="M25.1373 80.4924C25.7838 76.8106 26.8574 73.8146 29.4324 70.9942C37.1977 62.4884 49.4605 61.8934 58.2379 69.1951C66.7055 61.7534 80.4263 62.7434 87.8771 71.2928C90.3036 74.0773 91.2784 76.9198 92.2201 80.4311C99.376 77.2768 108.798 80.4037 111.899 87.7684C112.826 89.9707 113.017 91.2069 113.187 93.5471C117.947 94.8115 120.901 97.2433 120.965 102.488C121.428 102.511 122.156 102.525 122.59 102.606C125.711 102.683 127.462 105.195 126.927 107.98C126.419 110.613 126.644 115.292 125.965 117.581C125.711 118.456 125.22 119.242 124.547 119.855C123.103 121.156 121.828 120.823 120.471 121.27C120.259 122.51 120.04 123.749 119.812 124.985L114.898 152.079C114.428 154.711 113.94 157.341 113.434 159.967C113.048 162.088 112.813 164.315 112.062 166.335C110.426 170.746 106.003 173.694 101.372 173.988C99.5393 174.105 97.7344 174.062 95.9003 174.055L87.0709 174.041L56.9302 174.065L35.5487 174.066C33.0715 174.069 26.5299 174.248 24.4302 173.861C21.099 173.221 18.1566 171.29 16.2463 168.487C14.5402 165.95 14.3492 163.363 13.8293 160.418L12.3838 152.315L7.31913 125.078L6.76982 121.71C6.73714 121.559 6.73157 121.278 6.51243 121.264C1.75296 120.96 0.828588 118.271 0.655667 114.092C0.485401 109.979 -2.1674 102.666 4.5747 102.516C4.61534 98.5023 6.60354 96.4862 10.0923 94.939C8.94928 87.5201 13.7451 81.6383 21.0817 80.6186C22.4799 80.4244 23.7313 80.4398 25.1373 80.4924Z" fill="#4880ED"/>
<path d="M18.5215 121.227C17.6295 117.929 15.2817 112.413 20.2236 111.027C22.5431 110.374 24.7828 112.235 25.1228 114.48C25.5401 116.816 26.0536 119.262 26.9317 121.466C27.4465 122.776 27.8678 123.83 28.4931 125.102C33.5766 134.611 40.4427 140.219 50.8327 143.486C63.0793 147.336 78.5413 146.38 89.9154 140.3C90.4108 140.035 92.4919 138.795 92.8359 138.492C101.17 132.54 106.117 124.992 107.917 114.898C108.181 113.417 108.51 112.442 109.851 111.568C110.771 110.967 111.904 110.782 112.968 111.058C117.535 112.279 115.443 118.218 114.555 121.374C116.525 121.272 118.501 121.237 120.474 121.269C120.263 122.508 120.044 123.747 119.815 124.984L114.901 152.078C114.431 154.71 113.944 157.34 113.438 159.965C113.051 162.086 112.816 164.314 112.066 166.334C110.43 170.744 106.007 173.693 101.376 173.986C99.543 174.103 97.7381 174.061 95.9039 174.054L87.0745 174.039L56.9338 174.063L35.5523 174.065C33.0751 174.067 26.5335 174.247 24.4338 173.86C21.1026 173.22 18.1602 171.289 16.2499 168.485C14.5438 165.948 14.3528 163.361 13.833 160.417L12.3874 152.314L7.32275 125.077L6.77344 121.709L6.868 121.41C7.31212 121.078 17.2691 121.225 18.5215 121.227Z" fill="#4880ED"/>
<path d="M18.523 121.227C17.6308 117.929 15.2832 112.413 20.2249 111.027C22.5446 110.374 24.7843 112.235 25.1243 114.48C25.5416 116.816 26.0548 119.262 26.9332 121.466C27.4477 122.776 27.869 123.83 28.4943 125.102C33.5781 134.611 40.444 140.219 50.8339 143.486C63.0805 147.336 78.5426 146.38 89.9166 140.3C90.412 140.035 92.4932 138.795 92.8372 138.492C101.171 132.54 106.118 124.992 107.918 114.898C108.182 113.417 108.512 112.442 109.852 111.568C110.772 110.967 111.905 110.782 112.969 111.058C117.536 112.279 115.445 118.218 114.556 121.374C110.726 133.237 104.013 141.536 92.9248 147.555C91.0602 148.566 85.0451 151.099 83.098 151.384L82.9387 151.436C80.5281 152.198 76.5052 152.87 73.9831 153.14C62.7485 154.341 50.6955 153.098 40.5794 147.806C29.1512 141.828 22.3592 133.378 18.523 121.227Z" fill="#C5D9FF"/>
<path d="M25.1407 80.4924C25.7872 76.8106 26.8609 73.8146 29.4358 70.9942C37.2011 62.4884 49.464 61.8934 58.2413 69.1951C66.7089 61.7534 80.4297 62.7434 87.8805 71.2928C90.307 74.0773 91.2818 76.9198 92.2235 80.4311C99.3794 77.2768 108.801 80.4037 111.902 87.7684C112.829 89.9707 113.021 91.2069 113.191 93.5471C117.951 94.8115 120.904 97.2433 120.968 102.488C121.432 102.511 122.159 102.525 122.594 102.606C120.449 102.752 116.333 102.55 113.912 102.605C112.712 102.479 110.477 102.533 109.231 102.532L99.9027 102.561L80.5519 102.578C74.9247 102.629 68.3372 102.816 62.759 102.604L33.1161 102.597C27.2729 102.596 21.2256 102.678 15.3978 102.546C11.9224 102.565 8.01664 102.659 4.57812 102.516C4.61877 98.5023 6.60697 96.4862 10.0957 94.939C8.9527 87.5201 13.7486 81.6383 21.0851 80.6186C22.4834 80.4244 23.7347 80.4398 25.1407 80.4924Z" fill="#C5D9FF"/>
<path d="M32.492 91.6429C32.7866 90.5153 33.0403 89.7471 33.6074 88.7412C38.1445 80.6925 51.5498 80.6394 56.0577 88.7319C56.6453 89.7865 56.9975 90.7757 57.3447 91.9192C59.0091 90.7292 62.0797 90.523 64.0573 90.8646C66.5037 91.2764 68.6832 92.651 70.1069 94.6817C70.8427 95.7349 71.18 96.6486 71.5785 97.8532C75.2959 97.7908 77.6028 98.5545 78.6454 102.488C75.2826 102.532 71.9198 102.547 68.557 102.532C66.9632 102.531 64.222 102.447 62.7624 102.604L33.1194 102.597C27.2762 102.596 21.229 102.678 15.4012 102.547C14.9023 101.306 14.3647 99.9849 14.3121 98.6315C14.004 90.7013 23.3476 87.08 29.7654 89.8839C30.7631 90.3196 31.684 90.9138 32.492 91.6429Z" fill="white"/>
<path d="M89.4069 86.3197C91.1388 86.116 99.3293 86.3229 98.3491 89.9165C98.304 90.0847 98.0344 90.3761 97.883 90.3604C94.4086 90.0047 91.3473 90.0031 87.9699 91.034C86.5222 91.5706 85.6257 92.1855 84.4888 93.2148C83.5326 94.0794 82.4541 95.3504 81.6427 93.5189C81.5922 92.4126 82.4913 91.2133 83.0996 90.3091C84.8235 87.7432 86.4877 86.9059 89.4069 86.3197Z" fill="white"/>
<path d="M42.5245 70.2707C43.7947 70.0858 45.6429 70.7969 45.1289 72.5335C44.9018 73.3009 43.1389 73.1535 42.2108 73.4765C39.7107 74.3464 38.3462 75.1218 37.0324 77.685C36.7907 77.9916 36.7968 77.969 36.452 78.1629C34.1352 78.4102 34.6089 74.6723 35.7633 73.3915C37.6561 71.2907 39.83 70.5862 42.5245 70.2707Z" fill="white"/>
<path d="M67.8732 75.3594C68.4231 75.8463 68.7076 77.1457 69.5948 78.0544C70.6068 78.3514 71.6106 78.68 72.604 79.0393C71.5004 79.5228 70.3821 79.8211 69.3674 80.4854C68.8906 81.3227 68.697 82.3084 68.1498 83.3287C66.7539 82.8983 67.143 81.358 66.305 80.458C65.8402 79.9587 64.4549 79.7387 63.7656 79.2396C63.9529 78.5328 65.7485 78.5028 66.1921 78.1206C66.6782 77.7019 67.5293 75.973 67.8732 75.3594Z" fill="#C5D9FF"/>
<path d="M28.4922 125.102C32.0439 124.961 36.0341 125.062 39.6171 125.077L56.5916 125.089C70.1759 125.085 84.3351 124.864 97.862 125.077C97.1501 127.422 96.2045 129.566 95.3744 131.826C94.802 133.385 92.6119 137.133 92.8351 138.492C92.4911 138.795 90.4099 140.035 89.9145 140.3C78.5405 146.38 63.0784 147.336 50.8318 143.486C40.4419 140.219 33.5757 134.611 28.4922 125.102Z" fill="#4880ED"/>
<path d="M52.3189 8.80215C53.0072 6.77331 54.2455 0.379715 56.8664 0.252481C60.2563 0.0880589 67.1586 -0.344112 70.3434 0.531919C72.5136 1.12958 73.3955 6.60464 74.0449 8.82739C75.0888 8.84811 76.1288 8.96551 77.1514 9.17801C80.752 9.77036 84.4083 12.0964 86.4257 15.0802C88.0102 17.4249 90.0435 20.9949 86.8813 22.9244C86.4124 23.2107 85.5837 23.2638 85.0259 23.3069C80.1849 23.3597 75.2947 23.3117 70.455 23.3215L51.6987 23.331C48.4527 23.3326 42.7684 23.5659 39.6011 23.0484C37.5085 22.7063 37.6527 18.4635 38.6857 17.1871C40.5135 13.3186 44.5303 10.0679 48.7285 9.31189C49.9464 8.95011 51.0625 8.86112 52.3189 8.80215Z" fill="#4880ED"/>
<path d="M52.317 8.80215C53.0052 6.77331 54.2436 0.379715 56.8645 0.252481C60.2544 0.0880589 67.1567 -0.344112 70.3415 0.531919C72.5117 1.12958 73.3936 6.60464 74.043 8.82739C75.0869 8.84811 76.1268 8.96551 77.1495 9.17801C75.9741 9.4702 75.0577 8.87467 74.1187 9.09275L74.2635 9.27868L74.2197 9.65321C72.3284 9.99879 68.3347 9.66039 66.2004 9.66172L57.1285 9.70448C56.082 9.70979 53.0597 9.78496 52.2379 9.59504C52.0599 9.29329 52.1013 9.41017 52.0599 9.06857C51.245 8.8319 49.3699 9.65162 48.7266 9.31189C49.9445 8.95011 51.0606 8.86112 52.317 8.80215Z" fill="#0B2A65"/>
<path d="M52.0188 11.9719C52.8494 11.9419 54.4205 11.9544 54.3661 13.1261C53.7583 14.1097 51.7784 14.6391 50.7026 15.2216C49.3067 15.9778 48.0878 16.7792 46.7743 17.6553C43.9762 19.156 42.8882 12.4726 52.0188 11.9719Z" fill="#EDF3FF"/>
<path d="M63.1444 27.0703C63.7394 27.0942 64.3796 27.3197 64.8484 27.686C65.3624 28.0863 65.7369 28.637 65.9215 29.2612C66.3213 30.6531 66.7636 34.7033 67.0996 36.4928C67.5844 39.8232 68.3786 43.1226 68.8833 46.445C69.469 50.3003 67.2191 52.9297 63.4751 53.3744C58.2466 53.2251 56.7275 49.5172 57.6534 44.8887C58.6203 40.0567 59.4825 35.1546 60.0858 30.2655C60.3142 28.4107 61.4126 27.5346 63.1444 27.0703Z" fill="#EDF3FF"/>
<path d="M79.3193 26.9492C80.6833 26.975 81.4337 27.3925 82.0805 28.6067C83.3847 31.0531 84.6145 33.5426 85.8152 36.0424C86.8365 38.357 88.575 40.7426 89.1089 43.2389C89.6601 45.8134 88.4542 47.7429 86.3159 48.9361C84.8177 49.4724 83.3741 49.4986 81.9105 48.7982C79.5451 47.703 79.2728 45.122 78.9102 42.8153C78.2435 38.5817 77.3059 34.3224 76.7932 30.0703C76.5781 28.2755 77.6406 27.3397 79.3193 26.9492Z" fill="#EDF3FF"/>
<path d="M46.2949 26.9456C46.4457 26.9446 46.5964 26.9462 46.747 26.9504C48.4849 27.0065 49.7416 28.2103 49.5015 29.9785C48.958 34.1029 48.0854 38.2342 47.4429 42.3373C46.7693 46.6401 46.1613 49.8218 40.7529 49.2087C40.6631 49.1806 40.5736 49.1508 40.4846 49.1195C37.0973 47.9133 36.4795 44.3927 37.8289 41.3481C38.728 39.3203 39.9116 37.3324 40.9168 35.3442C42.1506 32.9033 43.2582 30.3377 44.7131 28.0302C45.0499 27.5061 45.7381 27.1701 46.2949 26.9456Z" fill="#EDF3FF"/>
<path d="M106.096 50.082C106.729 50.5145 107.379 52.9465 107.876 53.8483C109.932 57.5804 112.469 58.688 116.287 59.8671C115.761 60.1622 114.943 60.4937 114.384 60.7193C109.316 62.763 108.055 65.0952 106.115 69.8745C105.895 69.5082 105.233 67.8574 105.007 67.3564C103.738 64.5326 102.027 62.6891 99.2527 61.2959C98.7692 61.0531 96.6628 60.2289 96.4609 60.0114C96.4649 59.907 96.4689 59.8028 96.4729 59.6985C97.9126 59.1082 100.051 58.1398 101.237 57.336C103.933 55.5066 104.925 52.8958 106.096 50.082Z" fill="#EDF3FF"/>
<path d="M15.829 53.0234C16.2447 53.2662 16.5058 54.2405 16.7106 54.7314C18.4433 58.8876 20.4814 59.5621 24.29 61.1075C19.2503 62.9344 17.7027 64.389 15.8941 69.4043C15.5557 69.3899 14.8972 67.4942 14.7344 67.0883C13.3111 63.5446 10.7755 62.31 7.39062 61.0517C12.591 59.034 13.7412 58.2116 15.829 53.0234Z" fill="#EDF3FF"/>
<path d="M123.649 70.2734C123.98 70.4873 124.219 71.2207 124.378 71.6268C125.972 75.7092 127.942 76.2373 131.54 77.9941L131.15 78.1614C126.984 79.9587 125.548 81.0419 123.807 85.4239C123.47 85.0993 122.968 83.8323 122.726 83.334C121.215 80.2137 118.957 79.1721 115.977 77.8634C120.16 76.4962 122.155 74.2979 123.649 70.2734Z" fill="#EDF3FF"/>
</svg>
