<svg width="32" height="32" viewBox="0 0 32 32" fill="none" xmlns="http://www.w3.org/2000/svg">
<g clip-path="url(#clip0_764_17258)">
<path d="M31.1969 16.0008C31.1969 7.60605 24.3916 0.800781 15.9969 0.800781C7.60215 0.800781 0.796875 7.60605 0.796875 16.0008C0.796875 24.3955 7.60215 31.2008 15.9969 31.2008C24.3916 31.2008 31.1969 24.3955 31.1969 16.0008Z" fill="#EDF3FF"/>
<path d="M31.1969 16.0008C31.1969 7.60605 24.3916 0.800781 15.9969 0.800781C7.60215 0.800781 0.796875 7.60605 0.796875 16.0008C0.796875 24.3955 7.60215 31.2008 15.9969 31.2008C24.3916 31.2008 31.1969 24.3955 31.1969 16.0008Z" stroke="#9DBEFF" stroke-width="1.6"/>
<path d="M17.3437 20.5H15.5527V12.3379H15.498L13.1875 13.8145V12.1875L15.6348 10.6016H17.3437V20.5Z" fill="#C5D9FF"/>
</g>
<defs>
<clipPath id="clip0_764_17258">
<rect width="32" height="32" fill="white"/>
</clipPath>
</defs>
</svg>
