<svg width="32" height="32" viewBox="0 0 32 32" fill="none" xmlns="http://www.w3.org/2000/svg">
<g clip-path="url(#clip0_597_10753)">
<path d="M15.9971 0.800781C24.3918 0.800781 31.1973 7.60625 31.1973 16.001C31.1973 24.3957 24.3918 31.2012 15.9971 31.2012C7.60234 31.2012 0.796875 24.3957 0.796875 16.001C0.796875 7.60625 7.60234 0.800781 15.9971 0.800781Z" fill="#EDF3FF"/>
<path d="M15.9971 0.800781C24.3918 0.800781 31.1973 7.60625 31.1973 16.001C31.1973 24.3957 24.3918 31.2012 15.9971 31.2012C7.60234 31.2012 0.796875 24.3957 0.796875 16.001C0.796875 7.60625 7.60234 0.800781 15.9971 0.800781Z" stroke="#9DBEFF" stroke-width="1.6"/>
<path d="M11.6406 17.2324L15.9199 10.6016H18.1347V17.1914H19.4335V18.6543H18.1347V20.5H16.4394V18.6543H11.6406V17.2324ZM16.4668 17.1914V12.625H16.3574L13.4589 17.123V17.1914H16.4668Z" fill="#C5D9FF"/>
</g>
<defs>
<clipPath id="clip0_597_10753">
<rect width="32" height="32" fill="white"/>
</clipPath>
</defs>
</svg>
