<svg width="32" height="32" viewBox="0 0 32 32" fill="none" xmlns="http://www.w3.org/2000/svg">
<g clip-path="url(#clip0_597_10741)">
<path d="M15.9971 0.800781C24.3918 0.800781 31.1973 7.60625 31.1973 16.001C31.1973 24.3957 24.3918 31.2012 15.9971 31.2012C7.60234 31.2012 0.796875 24.3957 0.796875 16.001C0.796875 7.60625 7.60234 0.800781 15.9971 0.800781Z" fill="#EDF3FF"/>
<path d="M15.9971 0.800781C24.3918 0.800781 31.1973 7.60625 31.1973 16.001C31.1973 24.3957 24.3918 31.2012 15.9971 31.2012C7.60234 31.2012 0.796875 24.3957 0.796875 16.001C0.796875 7.60625 7.60234 0.800781 15.9971 0.800781Z" stroke="#9DBEFF" stroke-width="1.6"/>
<path d="M15.8379 20.6367C15.1862 20.6367 14.5983 20.516 14.0742 20.2744C13.5501 20.0329 13.1354 19.7002 12.8301 19.2764C12.5293 18.848 12.3698 18.3626 12.3516 17.8203H14.0879C14.1061 18.0846 14.1927 18.3216 14.3477 18.5312C14.5072 18.7409 14.7168 18.9049 14.9766 19.0234C15.2409 19.1419 15.528 19.2012 15.8379 19.2012C16.2025 19.2012 16.5283 19.1191 16.8154 18.9551C17.1071 18.791 17.3327 18.5654 17.4922 18.2783C17.6562 17.9867 17.7383 17.6608 17.7383 17.3008C17.7383 16.9271 17.654 16.5944 17.4853 16.3027C17.3167 16.0065 17.0843 15.7764 16.7881 15.6123C16.4919 15.4437 16.1569 15.3594 15.7832 15.3594C14.9993 15.3457 14.4525 15.6283 14.1426 16.207H12.4883L13.0898 10.6016H18.9414V12.0918H14.5527L14.2519 14.7168H14.3477C14.5436 14.4935 14.8125 14.3135 15.1543 14.1768C15.4961 14.0355 15.8652 13.9648 16.2617 13.9648C16.8678 13.9648 17.4147 14.1061 17.9023 14.3887C18.39 14.6712 18.7705 15.0632 19.0439 15.5645C19.3219 16.0612 19.4609 16.6217 19.4609 17.2461C19.4609 17.8978 19.306 18.4811 18.9961 18.9961C18.6907 19.5111 18.2624 19.9144 17.7109 20.2061C17.1641 20.4932 16.5397 20.6367 15.8379 20.6367Z" fill="#C5D9FF"/>
</g>
<defs>
<clipPath id="clip0_597_10741">
<rect width="32" height="32" fill="white"/>
</clipPath>
</defs>
</svg>
