<svg width="32" height="32" viewBox="0 0 32 32" fill="none" xmlns="http://www.w3.org/2000/svg">
<g clip-path="url(#clip0_597_10749)">
<path d="M15.9971 0.800781C24.3918 0.800781 31.1973 7.60625 31.1973 16.001C31.1973 24.3957 24.3918 31.2012 15.9971 31.2012C7.60234 31.2012 0.796875 24.3957 0.796875 16.001C0.796875 7.60625 7.60234 0.800781 15.9971 0.800781Z" fill="#EDF3FF"/>
<path d="M15.9971 0.800781C24.3918 0.800781 31.1973 7.60625 31.1973 16.001C31.1973 24.3957 24.3918 31.2012 15.9971 31.2012C7.60234 31.2012 0.796875 24.3957 0.796875 16.001C0.796875 7.60625 7.60234 0.800781 15.9971 0.800781Z" stroke="#9DBEFF" stroke-width="1.6"/>
<path d="M17.4843 12.1602V12.0918H12.5078V10.6016H19.33V12.1191L15.0371 20.5H13.1914L17.4843 12.1602Z" fill="#C5D9FF"/>
</g>
<defs>
<clipPath id="clip0_597_10749">
<rect width="32" height="32" fill="white"/>
</clipPath>
</defs>
</svg>
