<svg width="160" height="143" viewBox="0 0 160 143" fill="none" xmlns="http://www.w3.org/2000/svg">
<path d="M38.122 29.1328C38.1982 29.2037 38.2747 29.2744 38.3509 29.3453C43.5317 29.3772 52.3053 29.3591 57.1625 29.357L132.749 29.3363L148.169 29.3227C149.473 29.3206 154.895 29.2266 155.931 29.4903C158.013 30.0134 159.503 31.8401 159.598 33.9834C159.691 36.0356 158.131 40.2622 157.521 42.4922C156.439 45.8404 155.423 49.6725 154.42 53.081L149.013 71.3053C147.85 75.286 146.725 79.3102 145.451 83.256C144.851 85.1167 143.916 86.8287 142.618 88.2976C140.315 90.9127 137.223 92.707 133.812 93.4096C132.073 93.7642 128.462 93.6499 126.528 93.6473L115.008 93.6353L72.6248 93.6446L59.7186 93.6327C57.4332 93.6274 55.0335 93.6234 52.7696 93.6659C47.3753 93.7681 46.0302 100.532 51.1219 102.289C51.9584 102.578 53.5234 102.441 54.4255 102.515C58.7913 102.523 63.1786 102.518 67.5413 102.507L112.158 102.498H126.583C128.928 102.498 131.369 102.441 133.711 102.53C134.662 102.566 135.716 103.021 136.465 103.619C137.54 104.477 138.212 105.741 138.322 107.113C138.789 112.398 133.886 113.517 129.878 113.112C128.82 113.006 127.259 113.096 126.155 113.092L115.034 113.095L82.4689 113.107L60.2355 113.106C56.5691 113.102 52.7425 113.193 49.091 112.94C46.453 112.755 43.3569 111.06 41.4202 109.29C38.5916 106.67 36.9144 103.037 36.7548 99.1842C36.5149 93.8425 38.6431 89.805 42.1775 85.9721C40.8058 81.1098 39.2304 76.1599 37.7628 71.318L32.6493 54.3324C31.4442 50.4187 30.4053 46.3891 29.146 42.4996C29.0751 41.9232 28.1841 39.0866 27.9778 38.3763C27.1092 35.3851 26.1582 32.4048 25.3672 29.387C28.7993 29.4247 34.2866 29.3945 37.8946 29.3339C37.9703 29.267 38.0463 29.1997 38.122 29.1328Z" fill="#4880ED"/>
<path d="M38.122 29.1328C38.1982 29.2037 38.2747 29.2744 38.3509 29.3453C43.5317 29.3772 52.3053 29.3591 57.1625 29.357L132.749 29.3363L148.169 29.3227C149.473 29.3206 154.895 29.2266 155.931 29.4903C158.013 30.0134 159.503 31.8401 159.598 33.9834C159.691 36.0356 158.131 40.2622 157.521 42.4922C152.747 42.2382 146.706 42.3894 141.855 42.3931L113.698 42.4218L29.146 42.4996C29.0751 41.9232 28.1841 39.0866 27.9778 38.3763C27.1092 35.3851 26.1582 32.4048 25.3672 29.387C28.7993 29.4247 34.2866 29.3945 37.8946 29.3339C37.9703 29.267 38.0463 29.1997 38.122 29.1328Z" fill="#C5D9FF"/>
<path d="M89.9694 50.3747C92.3799 50.2594 94.9167 50.304 94.9565 53.5131C95.0561 61.5881 95.0229 69.6785 94.9645 77.7535C94.9525 79.4614 94.238 80.2928 92.6987 80.9104C87.847 81.0127 87.5456 80.2463 87.5681 75.4744C87.6053 68.0635 87.5017 60.6358 87.6253 53.2254C87.6518 51.646 88.5921 50.8701 89.9694 50.3747Z" fill="white"/>
<path d="M116.517 50.3867C117.324 50.4157 118.307 50.4305 119.071 50.6887C119.846 50.9509 120.593 51.5603 120.909 52.3335C121.169 52.9699 121.027 54.1071 120.967 54.7942C120.765 57.0892 118.075 78.62 117.555 79.6798C117.153 80.5006 116.389 80.9402 115.554 81.2059C114.418 81.17 112.827 81.1541 111.859 80.5777C111.407 80.2961 110.909 79.8459 110.828 79.2947C110.564 77.5309 110.872 75.7778 111.101 74.026C111.549 70.5883 112.014 67.1503 112.467 63.7121L113.4 56.6308C113.738 54.0638 113.473 51.0194 116.517 50.3867Z" fill="white"/>
<path d="M64.8662 50.5265C65.4974 50.441 66.1532 50.4736 66.7934 50.4811C67.0837 50.6574 67.3621 50.8529 67.6269 51.066C68.9335 52.1357 68.9715 54.5449 69.1946 56.1516L70.0717 62.5051C70.7621 67.4702 71.5098 72.4278 72.1587 77.3987C72.5003 80.0151 71.314 80.8797 68.8695 81.0909C68.169 81.1985 67.6319 81.1666 66.928 81.156C66.1179 80.6778 65.232 80.0882 65.0798 79.0708C63.919 71.2984 62.9803 63.4824 61.8158 55.7062C61.3693 52.7243 61.406 50.9345 64.8662 50.5265Z" fill="white"/>
<path d="M117.889 116.443C125.203 116.116 131.401 121.775 131.74 129.087C132.079 136.401 126.43 142.607 119.118 142.958C111.789 143.308 105.565 137.646 105.225 130.316C104.887 122.986 110.559 116.771 117.889 116.443Z" fill="#0B2A65"/>
<path d="M21.4544 16.3193C17.6929 15.3532 13.9226 14.4222 10.1438 13.5262C6.5475 12.651 1.8385 12.2704 0.40014 8.37683C-1.25709 3.88989 2.47414 -0.745536 7.16109 0.100745C13.1106 1.1752 18.9607 2.95462 24.8581 4.28832C30.606 5.5851 31.6621 7.37011 33.2099 12.8858C34.73 18.3032 36.536 23.7315 38.1218 29.133C38.0458 29.2 37.9701 29.2672 37.8942 29.3341C34.2864 29.3947 28.7989 29.425 25.3668 29.3872C24.6352 27.4118 24.0408 24.896 23.4211 22.8454C22.7663 20.6798 22.0539 18.4886 21.4544 16.3193Z" fill="#4880ED"/>
<path d="M56.7854 116.505C64.0377 116.316 70.0714 122.04 70.265 129.292C70.4587 136.545 64.739 142.582 57.4869 142.78C50.2274 142.979 44.1828 137.254 43.9892 129.994C43.7952 122.735 49.5258 116.693 56.7854 116.505Z" fill="#0B2A65"/>
</svg>
