<svg width="14" height="14" viewBox="0 0 14 14" fill="none" xmlns="http://www.w3.org/2000/svg">
<path d="M1.45312 7L2.61979 7.58333" stroke="#989BA2" stroke-width="0.875" stroke-linecap="round" stroke-linejoin="round"/>
<path d="M12.5391 7.28906L11.3724 7.58073" stroke="#989BA2" stroke-width="0.875" stroke-linecap="round" stroke-linejoin="round"/>
<path d="M4.66406 10.2083L4.80737 9.85007C5.02049 9.31728 5.12704 9.05088 5.34925 8.90044C5.57146 8.75 5.85837 8.75 6.4322 8.75H7.56259C8.13642 8.75 8.42334 8.75 8.64554 8.90044C8.86775 9.05088 8.97431 9.31728 9.18742 9.85007L9.33073 10.2083" stroke="#989BA2" stroke-width="0.875" stroke-linecap="round" stroke-linejoin="round"/>
<path d="M1.16406 9.91406V11.5952C1.16406 11.8162 1.3045 12.0181 1.52683 12.117C1.67109 12.1811 1.80887 12.2474 1.97523 12.2474H2.97789C3.14425 12.2474 3.28204 12.1811 3.4263 12.117C3.64862 12.0181 3.78906 11.8162 3.78906 11.5952V10.4974" stroke="#989BA2" stroke-width="0.875" stroke-linecap="round" stroke-linejoin="round"/>
<path d="M10.2031 10.4974V11.5952C10.2031 11.8162 10.3436 12.0181 10.5659 12.117C10.7101 12.1811 10.8479 12.2474 11.0143 12.2474H12.017C12.1833 12.2474 12.3211 12.1811 12.4654 12.117C12.6877 12.0181 12.8281 11.8162 12.8281 11.5952V9.91406" stroke="#989BA2" stroke-width="0.875" stroke-linecap="round" stroke-linejoin="round"/>
<path d="M11.6641 4.95573L12.2474 4.66406" stroke="#989BA2" stroke-width="0.875" stroke-linecap="round" stroke-linejoin="round"/>
<path d="M2.32812 4.95573L1.74479 4.66406" stroke="#989BA2" stroke-width="0.875" stroke-linecap="round" stroke-linejoin="round"/>
<path d="M2.625 5.25L3.25984 3.34547C3.51652 2.57545 3.64486 2.19043 3.95039 1.97022C4.25593 1.75 4.66176 1.75 5.47344 1.75H8.52656C9.33824 1.75 9.74407 1.75 10.0496 1.97022C10.3551 2.19043 10.4835 2.57545 10.7402 3.34547L11.375 5.25" stroke="#989BA2" stroke-width="0.875" stroke-linejoin="round"/>
<path d="M2.6224 5.25H11.3724C11.9308 5.84122 12.8307 6.66455 12.8307 7.58311V9.60761C12.8307 9.94038 12.6093 10.2205 12.3156 10.2594L10.4974 10.5H3.4974L1.67924 10.2594C1.38546 10.2205 1.16406 9.94038 1.16406 9.60761V7.58311C1.16406 6.66455 2.06402 5.84122 2.6224 5.25Z" stroke="#989BA2" stroke-width="0.875" stroke-linejoin="round"/>
</svg>
