<svg width="223" height="87" viewBox="0 0 223 87" fill="none" xmlns="http://www.w3.org/2000/svg">
<path d="M119.202 0.0852414C135.134 -0.690516 151.026 3.88995 165.036 11.325C170.232 14.0826 175.818 17.7461 181.311 19.6926C184.284 20.6831 187.715 20.7742 190.804 20.8916C204.249 21.4029 217.473 28.7222 221.492 42.204C223.567 49.1561 223.676 58.1791 220.711 64.9315C219.542 67.5895 216.44 68.0922 214.141 66.5733C212.854 65.723 212.004 64.3512 211.817 62.8216C211.683 61.7092 212.378 59.3747 212.632 58.1018C213.384 54.3463 213.499 50.3169 212.651 46.5681C211.525 41.5098 208.407 37.1189 204.003 34.3873C195.2 28.9247 187.068 31.3255 178.219 28.9271C174.492 27.9165 166.9 23.0946 162.94 20.9531C144.363 10.9055 126.545 6.89218 105.545 11.7711C93.25 14.1572 77.8303 22.3054 67.1617 28.6834C57.4117 34.5122 58.8068 36.0605 46.2821 36.2667C36.9791 36.4196 23.4495 37.2828 15.6895 42.6056C8.28919 47.6821 11.0483 57.1581 9.93003 64.6721C9.60352 66.338 8.69405 68.3115 7.12943 69.1539C3.63705 71.0311 1.46728 68.6699 0 65.8219C0.980861 56.2807 -0.980855 46.0504 6.42454 37.7914C14.775 28.4783 30.4535 27.5772 42.2048 26.7188C45.2087 26.4995 50.6002 26.7958 53.3246 25.9133C56.1078 24.7865 58.6404 22.4434 61.1776 20.9077C79.2786 9.95135 97.9184 1.49396 119.202 0.0852414Z" fill="#3467CB"/>
<path fill-rule="evenodd" clip-rule="evenodd" d="M172.522 41.6469C184.786 39.5847 196.397 47.8687 198.434 60.1381C200.475 72.4068 192.167 83.9996 179.895 86.0161C167.656 88.0243 156.1 79.7451 154.065 67.5112C152.033 55.2753 160.291 43.7039 172.522 41.6469ZM189.054 61.9467C188.049 54.9411 181.583 50.0575 174.569 51.0053C167.475 51.9645 162.522 58.5215 163.538 65.6079C164.557 72.6942 171.154 77.593 178.232 76.518C185.228 75.4564 190.06 68.9502 189.054 61.9467Z" fill="#3467CB"/>
<path d="M87.6857 41.7711C91.2628 41.286 95.5302 41.5994 98.956 42.7377C104.806 44.6618 109.646 48.8425 112.401 54.3511C113.382 56.3468 114.123 58.4976 114.471 60.697C114.952 63.7428 115.219 79.6003 114.334 82.0337C113.765 83.6034 113.069 84.4351 111.524 85.0822C110.339 85.5796 108.801 86.0288 107.59 85.363C103.003 82.8493 106.566 65.2296 103.917 59.0616C102.485 55.6424 99.7034 52.9667 96.231 51.6682C88.6414 48.8606 81.2903 52.3715 78.6523 60.09C77.8594 63.0823 77.9137 65.7939 79.0721 68.7167C79.9511 70.9388 81.436 72.8722 83.3579 74.2948C86.9511 76.9529 90.908 77.2604 95.0678 76.0758C97.801 75.2976 101.159 75.2575 102.061 78.6242C103.285 83.1943 99.3806 84.7961 95.6973 85.5502C83.4467 88.0558 70.6891 80.817 68.3543 67.9358C67.3106 62.0742 68.6466 56.0366 72.0668 51.1614C75.8175 45.8552 81.351 42.8126 87.6857 41.7711Z" fill="#3467CB"/>
<path d="M45.8465 41.7647C50.3711 41.064 61.5868 42.526 63.9598 46.9455C64.458 47.8849 64.5594 48.9842 64.2417 49.999C63.4387 52.5549 59.9853 54.0498 57.5508 52.9138C52.8372 50.7143 48.0262 49.6388 43.1724 52.333C40.1788 54.0067 37.9801 56.8097 37.068 60.1168C36.0368 63.6359 36.5158 67.4251 38.3901 70.5779C41.4671 75.7014 47.5489 77.6001 53.1979 76.2951C56.7419 75.4768 56.9983 73.1664 61.5277 74.3216L61.8874 74.4152C63.1531 75.2094 63.9179 75.8351 64.4064 77.2845C66.1296 82.4001 58.3228 84.772 54.6473 85.4673C47.778 86.6225 41.7313 85.8978 35.9227 81.9695C22.5021 72.8936 23.2362 52.6164 37.2961 44.6139C40.2584 42.9276 42.4517 42.3185 45.8465 41.7647Z" fill="#3467CB"/>
<path d="M142.875 42.0197C147.29 41.4009 155.331 42.4571 152.989 49.0945C151.914 52.1181 148.234 51.8077 145.72 51.6494C126.855 50.4623 134.746 71.2337 132.096 82.1735C131.692 83.8421 130.318 84.8155 128.9 85.5188C121.592 86.0242 122.905 79.3844 122.763 74.3704C122.718 72.7686 122.761 71.1321 122.758 69.5276L122.766 45.8621C125.095 41.6742 130.347 40.2836 132.31 45.8329C132.58 46.5942 132.312 46.4167 132.807 47.1892C136.778 43.907 137.463 43.0219 142.875 42.0197Z" fill="#3467CB"/>
</svg>
