<svg width="129" height="163" viewBox="0 0 129 163" fill="none" xmlns="http://www.w3.org/2000/svg">
<path d="M108.315 27.5194C110.351 27.5231 112.985 27.4727 114.96 27.8868C118.307 28.5957 121.378 30.2522 123.809 32.6582C129.71 38.5431 128.821 44.4883 128.804 52.1033L128.81 68.0132L128.783 131.24L128.772 140.852C128.747 147.488 128.95 152.436 123.766 157.589C121.301 160.051 118.163 161.731 114.746 162.414C112.149 162.925 109.115 162.774 106.44 162.772L95.5387 162.751L54.5618 162.741L28.3948 162.731C25.2026 162.735 16.9857 162.936 14.2654 162.459C11.6307 161.973 9.14526 160.88 7.00645 159.266C3.30656 156.496 0.825086 152.517 0.169523 147.923C-0.0570546 146.336 0.00855745 143.945 0.00961995 142.274L0.0109494 133.946L0.0104144 105.715L0.00855804 76.3147L0.00749612 67.8825C0.00988675 62.0419 -0.223332 58.3532 3.5087 53.3993C5.8454 50.2689 9.15641 48.0036 12.9206 46.9597C16.2308 46.0372 23.9074 46.3809 27.7712 46.3767L46.3633 46.3565C48.2992 46.365 50.4348 46.4378 52.359 46.3313C54.357 46.2208 56.2347 43.8447 57.6444 42.4478C60.5596 39.5732 63.4592 36.6832 66.3425 33.7773C68.7172 31.4002 71.3161 28.0172 74.7599 27.5386C75.0641 27.5197 74.9393 27.5229 75.2314 27.5213L100.831 27.5117L108.315 27.5194ZM112.022 40.7122C108.425 40.7598 80.0191 40.5095 79.173 40.9061C77.7756 41.5612 69.5561 49.8779 67.9504 51.5479C67.4101 52.1097 67.1046 52.5976 67.106 53.3932C67.1073 53.9106 67.3331 54.3869 67.7129 54.7346C68.5483 55.499 69.478 55.5423 70.5458 55.5219L98.4096 55.5338L107.016 55.537C113.598 55.5569 115.604 56.5222 114.981 48.8164C114.768 46.1998 116.22 40.7276 112.022 40.7122Z" fill="#4880ED"/>
<path d="M28.6531 65.039C29.3971 65.4884 32.1378 68.3495 32.8757 69.0871L43.021 79.2095C44.1842 80.3677 46.8635 83.1966 48.0265 84.0758L81.0835 84.0678C83.2151 82.2137 85.2379 79.9745 87.2845 77.9959C91.666 73.7608 95.9811 69.1718 100.398 65.0039C102.171 66.7403 104.196 69.0451 106.012 70.6091C99.8247 76.6872 92.8268 84.1276 86.4597 89.8465L86.4478 119.672C89.3072 122.301 92.2636 125.311 95.0461 128.058C98.7011 131.607 102.323 135.191 105.91 138.809L100.465 144.266C99.5444 144.177 83.7517 127.868 81.0729 125.63C70.1676 125.819 58.7325 125.665 47.7932 125.631C46.2122 126.897 43.0173 130.257 41.4536 131.795C37.1714 135.976 32.9214 140.192 28.7044 144.439C26.8293 142.549 24.9354 140.678 23.0234 138.826L34.1975 127.712C36.5865 125.379 40.1903 122.01 42.3705 119.603C42.5501 115.866 42.4475 111.394 42.4417 107.635L42.4605 89.8159C36.2043 83.5977 29.4441 76.6439 23.0391 70.6599C24.869 68.9516 26.8692 66.8357 28.6531 65.039Z" fill="white"/>
<path d="M50.49 91.9062C59.765 92.0178 69.2319 91.9394 78.5168 91.9129L78.4836 117.864L50.4844 117.846L50.49 91.9062Z" fill="#4880ED"/>
<path d="M23.3429 0.0261326C23.5719 0.0136483 23.8009 0.00567861 24.0301 0.00195986C26.2627 -0.0397433 27.147 0.582882 28.7179 1.98565C30.4548 3.53663 32.2183 5.08018 33.9648 6.62187L40.8434 12.7065C45.9447 17.1842 46.0101 16.7183 45.9851 23.7318C45.9596 26.1995 45.9628 28.6674 45.9944 31.1353C47.684 31.0995 50.4197 30.8418 51.636 32.0839C53.4428 33.9499 53.3559 39.7883 51.5027 41.5699C50.1352 42.8845 47.1459 42.4804 45.2777 42.4746L36.7621 42.4674C34.1451 42.4563 31.5282 42.4592 28.9112 42.4765C23.2218 42.5195 20.4296 43.2996 20.5871 36.2258C20.7095 30.718 22.6494 31.0748 27.2787 31.1005C27.3186 29.3378 27.309 27.5372 27.3403 25.7849C27.3804 23.53 25.8393 22.6555 24.3754 21.2767C22.4289 19.4367 20.4612 17.6195 18.4724 15.8252C15.1949 12.834 11.9484 10.6989 16.1243 6.0096C18.138 3.7486 20.3289 0.90057 23.3429 0.0261326Z" fill="#0B2A65"/>
</svg>
