<svg width="134" height="132" viewBox="0 0 134 132" fill="none" xmlns="http://www.w3.org/2000/svg">
<path d="M28.1825 0.205296C31.5092 -0.133375 37.7498 0.0485774 41.2967 0.0507024L65.7849 0.069825L89.7706 0.0459197C94.3781 0.0382166 101.7 -0.172693 106.066 0.527495C111.062 1.35545 115.798 3.32692 119.905 6.28811C126.748 11.2965 131.324 18.8142 132.629 27.1923C133.227 31.2507 133.032 37.8667 133.033 42.1122L133.031 65.8256L133.036 89.1419C133.045 93.8992 133.28 101.422 132.53 105.904C131.738 110.559 129.833 114.955 126.976 118.714C121.666 125.798 113.969 129.848 105.307 131.116C105.041 131.151 104.774 131.179 104.507 131.208C100.525 131.609 94.248 131.434 90.0617 131.431L66.1297 131.417L42.998 131.426C31.5748 131.443 20.7259 132.528 11.3738 124.567C-0.64604 114.337 0.0740721 103.348 0.0966502 89.182L0.129853 64.443L0.0695511 42.0999C0.0403324 36.9896 -0.261151 29.7356 0.669599 24.9499C1.71111 19.6695 4.10971 14.7514 7.6295 10.6797C12.8296 4.61334 20.2177 0.848374 28.1825 0.205296Z" fill="#4880ED"/>
<path d="M43.4334 25.4283C47.5767 25.1117 53.9756 25.2759 58.3018 25.2849C70.1301 25.3091 83.0631 24.2147 92.769 32.2576C98.6064 37.0882 102.261 44.0683 102.911 51.628C104.615 69.8987 91.7344 81.455 74.3615 82.9505L58.7815 83.0249C58.7637 86.3967 59.2469 105.138 58.1762 108.177C57.5341 109.999 44.0635 110.466 41.4853 108.034C40.1968 103.433 41.4498 37.5536 41.5268 27.586C41.5348 26.5482 42.5739 25.9285 43.4334 25.4283Z" fill="white"/>
<path d="M59.0083 42.325C64.3211 42.3093 70.6645 41.9385 75.8176 42.8203C85.0258 44.3968 88.3649 55.2513 81.9411 62.0646C76.4965 67.2045 66.5266 65.6915 58.9688 65.5913C59.0986 57.9169 59.0097 50.0161 59.0083 42.325Z" fill="#4880ED"/>
</svg>
