<svg width="114" height="114" viewBox="0 0 114 114" fill="none" xmlns="http://www.w3.org/2000/svg">
<g clip-path="url(#clip0_764_16670)">
<path d="M114 57C114 25.5198 88.4802 0 57 0C25.5198 0 0 25.5198 0 57C0 88.4802 25.5198 114 57 114C88.4802 114 114 88.4802 114 57Z" fill="#FEB802"/>
<path d="M69.9531 48.9688C69.6562 47.0143 68.9759 45.3197 67.9121 43.8848C66.8483 42.4251 65.4876 41.3118 63.8301 40.5449C62.1725 39.778 60.3047 39.3945 58.2266 39.3945C55.431 39.3945 52.9818 40.0996 50.8789 41.5098C48.8008 42.8952 47.1927 44.9238 46.0547 47.5957C44.9167 50.2428 44.3477 53.4219 44.3477 57.1328C44.3477 60.918 44.9167 64.1465 46.0547 66.8184C47.1927 69.4655 48.8008 71.4694 50.8789 72.8301C52.957 74.1908 55.3815 74.8711 58.1523 74.8711C61.2448 74.8711 63.8424 74.0547 65.9453 72.4219C68.0729 70.7891 69.4088 68.5378 69.9531 65.668L81.2344 65.7422C80.8138 69.1315 79.6139 72.2734 77.6348 75.168C75.6556 78.0625 72.9837 80.388 69.6191 82.1445C66.2546 83.8763 62.3828 84.7422 58.0039 84.7422C53.1797 84.7422 48.875 83.6536 45.0898 81.4766C41.3047 79.2747 38.3359 76.0957 36.1836 71.9395C34.056 67.7832 32.9922 62.8477 32.9922 57.1328C32.9922 51.4427 34.0684 46.5195 36.2207 42.3633C38.3978 38.1823 41.3789 35.0033 45.1641 32.8262C48.974 30.6243 53.2539 29.5234 58.0039 29.5234C62.1354 29.5234 65.8711 30.2904 69.2109 31.8242C72.5508 33.3581 75.2598 35.597 77.3379 38.541C79.4407 41.4603 80.7396 44.9362 81.2344 48.9688H69.9531Z" fill="white"/>
</g>
<defs>
<clipPath id="clip0_764_16670">
<rect width="114" height="114" fill="white"/>
</clipPath>
</defs>
</svg>
