<svg width="83" height="83" viewBox="0 0 83 83" fill="none" xmlns="http://www.w3.org/2000/svg">
<g clip-path="url(#clip0_508_9852)">
<path d="M83 41.5C83 18.5802 64.4198 0 41.5 0C18.5802 0 0 18.5802 0 41.5C0 64.4198 18.5802 83 41.5 83C64.4198 83 83 64.4198 83 41.5Z" fill="#4880ED"/>
<path d="M52.6847 32.4213C52.4068 30.5918 51.7699 29.0054 50.7741 27.6623C49.7783 26.2959 48.5046 25.2538 46.953 24.5358C45.4014 23.8179 43.6529 23.459 41.7076 23.459C39.0907 23.459 36.798 24.119 34.8295 25.439C32.8842 26.7359 31.3789 28.6349 30.3136 31.136C29.2483 33.614 28.7157 36.5899 28.7157 40.0636C28.7157 43.6069 29.2483 46.629 30.3136 49.1302C31.3789 51.6081 32.8842 53.4839 34.8295 54.7577C36.7748 56.0314 39.0444 56.6682 41.6381 56.6682C44.5329 56.6682 46.9646 55.904 48.9331 54.3756C50.9247 52.8471 52.1752 50.7396 52.6847 48.0533L63.2452 48.1228C62.8515 51.2954 61.728 54.2366 59.8754 56.9461C58.0228 59.6557 55.5216 61.8326 52.372 63.4766C49.2225 65.0981 45.5982 65.9085 41.4992 65.9085C36.9833 65.9085 32.9537 64.8894 29.4105 62.8518C25.8672 60.7904 23.0882 57.8146 21.0734 53.9239C19.0818 50.0333 18.0859 45.4132 18.0859 40.0636C18.0859 34.7372 19.0933 30.1286 21.1081 26.238C23.1461 22.3242 25.9367 19.3483 29.4799 17.3104C33.0463 15.2493 37.0527 14.2188 41.4992 14.2188C45.3666 14.2188 48.8636 14.9366 51.99 16.3725C55.1164 17.8083 57.6522 19.9041 59.5973 22.66C61.5662 25.3927 62.7816 28.6465 63.2452 32.4213H52.6847Z" fill="white"/>
</g>
<defs>
<clipPath id="clip0_508_9852">
<rect width="83" height="83" fill="white"/>
</clipPath>
</defs>
</svg>
