<svg width="20" height="20" viewBox="0 0 20 20" fill="none" xmlns="http://www.w3.org/2000/svg">
<path d="M12.5 12.4961L13.75 13.7461" stroke="#989BA2" stroke-width="1.25" stroke-linecap="round" stroke-linejoin="round"/>
<path d="M14.111 15.8504C13.6297 15.369 13.6297 14.5885 14.111 14.1071C14.5924 13.6257 15.3729 13.6257 15.8543 14.1071L17.5556 15.8084C18.037 16.2898 18.037 17.0703 17.5556 17.5517C17.0742 18.0331 16.2937 18.0331 15.8124 17.5517L14.111 15.8504Z" stroke="#989BA2" stroke-width="1.25" stroke-linecap="round" stroke-linejoin="round"/>
<path d="M13.7526 7.91536C13.7526 4.6937 11.1409 2.08203 7.91927 2.08203C4.69761 2.08203 2.08594 4.6937 2.08594 7.91536C2.08594 11.137 4.69761 13.7487 7.91927 13.7487C11.1409 13.7487 13.7526 11.137 13.7526 7.91536Z" stroke="#989BA2" stroke-width="1.25" stroke-linecap="round" stroke-linejoin="round"/>
</svg>
