<svg width="18" height="18" viewBox="0 0 18 18" fill="none" xmlns="http://www.w3.org/2000/svg">
<path d="M9 1.5C13.1421 1.5 16.5 4.85786 16.5 9C16.5 13.1421 13.1421 16.5 9 16.5C4.85786 16.5 1.5 13.1421 1.5 9C1.5 4.85786 4.85786 1.5 9 1.5ZM11.9717 9.85059C11.6132 9.64322 11.1538 9.76564 10.9463 10.124C10.5561 10.7985 9.82894 11.25 8.99707 11.25C8.16521 11.25 7.43802 10.7985 7.04785 10.124C6.84038 9.76566 6.38093 9.64322 6.02246 9.85059C5.66409 10.0581 5.54166 10.5175 5.74902 10.876C6.39631 11.9948 7.6082 12.75 8.99707 12.75C10.3859 12.75 11.5978 11.9948 12.2451 10.876C12.4525 10.5175 12.3301 10.058 11.9717 9.85059ZM6.75 6C6.55109 6 6.36038 6.07907 6.21973 6.21973L5.46973 6.96973C5.17683 7.26262 5.17683 7.73738 5.46973 8.03027C5.76262 8.32317 6.23738 8.32317 6.53027 8.03027L6.75 7.81055L6.96973 8.03027C7.26262 8.32317 7.73738 8.32317 8.03027 8.03027C8.32317 7.73738 8.32317 7.26262 8.03027 6.96973L7.28027 6.21973C7.13962 6.07907 6.94891 6 6.75 6ZM11.25 6C11.0511 6 10.8604 6.07907 10.7197 6.21973L9.96973 6.96973C9.67683 7.26262 9.67683 7.73738 9.96973 8.03027C10.2626 8.32317 10.7374 8.32317 11.0303 8.03027L11.25 7.81055L11.4697 8.03027C11.7626 8.32317 12.2374 8.32317 12.5303 8.03027C12.8232 7.73738 12.8232 7.26262 12.5303 6.96973L11.7803 6.21973C11.6396 6.07907 11.4489 6 11.25 6Z" fill="#EDF3FF"/>
</svg>
