<svg width="123" height="151" viewBox="0 0 123 151" fill="none" xmlns="http://www.w3.org/2000/svg">
<path d="M0.139987 12.8737C0.244909 9.53535 1.9882 6.13216 4.4192 3.87701C6.47886 1.93768 9.08013 0.671976 11.8769 0.248038C14.496 -0.135524 21.2829 0.0384604 24.2277 0.0448354L45.8283 0.0411187L81.3389 0.0528038L98.1742 0.0352741C101.582 0.0373991 105.022 0.00101006 108.397 0.0950413C114.098 0.254151 119.131 3.78802 121.094 9.15763C121.928 11.4394 121.97 13.2807 121.938 15.6601L121.949 65.901L121.944 128.974L121.95 139.442C121.952 140.868 121.941 142.309 121.953 143.732C121.972 145.898 121.976 148.001 119.768 149.148C119.095 149.495 118.346 149.669 117.589 149.654C114.654 149.616 114.14 147.051 111.24 146.143C107.26 147.115 107.333 150.191 103.531 150.747C100.235 151.23 99.072 148.427 97.0785 147.033C92.4075 143.764 90.6265 150.39 86.7191 150.734C83.2408 151.041 82.59 148.751 80.5234 147.229C75.3915 143.451 74.0568 150.597 69.6262 150.758C66.4373 150.874 65.7839 148.834 63.8355 147.337C58.6439 143.347 57.2857 150.528 52.8522 150.766C49.8015 150.929 49.0131 148.976 47.1421 147.462C41.8075 143.145 40.4828 150.684 35.9077 150.782C32.992 150.843 32.2041 148.964 30.4475 147.523C24.9071 142.978 23.7692 150.736 18.9646 150.791C16.4881 150.819 15.5013 149.294 13.9748 147.889C9.10722 143.41 8.31725 149.592 4.21998 149.698C3.17475 149.725 1.91967 149.035 1.21444 148.297C0.681592 147.738 0.319812 147.038 0.171593 146.281C-0.0674692 145.071 0.0140781 141.453 0.0159374 139.984L0.0199257 128.954L0.0196582 65.8627L0.0270916 28.9305L0.0135461 18.8609C0.0114211 17.2964 -0.0581691 14.3554 0.139987 12.8737Z" fill="#EDF3FF"/>
<path d="M0.139987 12.8737C0.244909 9.53535 1.9882 6.13216 4.4192 3.87701C6.47886 1.93768 9.08013 0.671976 11.8769 0.248038C14.496 -0.135524 21.2829 0.0384604 24.2277 0.0448354L45.8283 0.0411187L81.3389 0.0528038L98.1742 0.0352741C101.582 0.0373991 105.022 0.00101006 108.397 0.0950413C114.098 0.254151 119.131 3.78802 121.094 9.15763C121.928 11.4394 121.97 13.2807 121.938 15.6601L121.949 65.901C115.646 64.7702 112.185 61.3601 105.754 61.0398C99.8649 60.7468 95.0651 66.5061 90.0248 65.8176C84.3019 65.0361 81.3628 60.4504 74.4154 60.9776C69.1826 61.375 65.3376 65.9509 61.3426 66.0936C57.6319 66.2258 53.7062 61.1402 48.5735 60.6775C41.5047 60.0402 38.6986 64.6496 32.5412 65.4887C27.0242 66.2404 22.572 59.7425 16.3041 60.4381C10.2175 61.1139 6.04324 64.5681 0.0196582 65.8627L0.0270916 28.9305L0.0135461 18.8609C0.0114211 17.2964 -0.0581691 14.3554 0.139987 12.8737Z" fill="#4880ED"/>
<path d="M0.140625 12.8737C0.245547 9.53535 1.98911 6.13216 4.42011 3.87701C6.4795 1.93768 9.08076 0.671976 11.8778 0.248038C14.4969 -0.135524 21.2836 0.0384604 24.2283 0.0448354L45.8289 0.0411187L81.3398 0.0528038L98.1751 0.0352741C101.583 0.0373991 105.023 0.00101006 108.398 0.0950413C114.099 0.254151 119.132 3.78802 121.095 9.15763C121.929 11.4394 121.971 13.2807 121.939 15.6601C117.801 15.836 112.661 15.6952 108.459 15.6949L82.7875 15.6955L0.161604 15.7026C0.186041 14.693 0.201719 13.8783 0.140625 12.8737Z" fill="#3467CB"/>
<path d="M60.223 23.1486C64.6031 22.976 64.0918 23.5171 64.1675 27.6127C65.6789 27.8398 69.4906 28.6614 70.2437 30.2897C70.5996 31.4667 69.1148 34.043 67.8119 33.9383C66.1026 33.7572 64.7439 32.6673 62.9788 32.4272C61.3931 32.2115 58.8019 32.1456 57.7917 33.6193C56.3199 35.6723 59.2189 36.8095 60.9335 37.1758C67.262 38.5283 73.5255 41.0996 70.2437 48.9299C69.3233 51.1285 66.3443 52.3023 64.0506 52.9733C64.0387 53.6974 64.0573 54.5607 64.0945 55.2808C64.2193 57.7017 63.3162 57.8108 61.2509 57.7683C57.4629 57.8122 58.4127 56.1573 58.3556 52.9903C56.9364 52.7467 55.5679 52.4444 54.2169 51.9376C53.3114 51.5981 51.5942 50.9062 51.2844 49.9223C51.061 49.2123 51.6385 48.1511 51.9681 47.5296C52.1902 47.1112 52.6357 46.3122 53.0944 46.1082C53.7797 45.8033 59.8803 48.9488 63.2073 47.8581C63.9696 47.6082 64.7851 47.2047 65.1291 46.4344C65.327 45.9911 65.4067 45.441 65.2167 44.9827C64.4265 43.0705 58.0927 42.136 56.0989 41.2544C54.3776 40.4934 52.8362 39.3597 52.165 37.5261C51.5171 35.7565 51.7031 33.5083 52.5175 31.8099C53.7032 29.3366 56.0492 28.4139 58.4552 27.5569C58.4818 25.4736 57.6717 23.524 60.223 23.1486Z" fill="white"/>
<path d="M0.0266856 128.956C13.3826 129.096 26.8022 128.924 40.1618 128.952L121.95 128.976L121.957 139.445C121.958 140.87 121.948 142.311 121.96 143.734C121.978 145.901 121.982 148.003 119.775 149.15C119.102 149.497 118.353 149.671 117.595 149.656C114.66 149.618 114.146 147.053 111.247 146.145C107.267 147.117 107.34 150.193 103.537 150.75C100.242 151.232 99.0788 148.429 97.0853 147.035C92.4142 143.766 90.6332 150.392 86.7259 150.736C83.2475 151.043 82.5967 148.753 80.5302 147.231C75.3983 143.453 74.0635 150.599 69.6329 150.76C66.4441 150.876 65.7906 148.836 63.8423 147.339C58.6506 143.349 57.2925 150.53 52.859 150.768C49.8083 150.931 49.0199 148.978 47.1488 147.464C41.8143 143.147 40.4896 150.686 35.9145 150.784C32.9987 150.845 32.2109 148.966 30.4543 147.525C24.9139 142.98 23.7759 150.738 18.9713 150.793C16.4949 150.821 15.5081 149.297 13.9816 147.891C9.11398 143.412 8.32401 149.594 4.22674 149.7C3.18151 149.727 1.92643 149.038 1.2212 148.299C0.688352 147.74 0.326572 147.04 0.178353 146.283C-0.0607093 145.073 0.0208379 141.455 0.0226973 139.986L0.0266856 128.956Z" fill="#4880ED"/>
<path d="M25.0752 77.8944C34.9289 77.8055 45.0851 77.9622 54.983 77.9834L65.2481 78.0286C67.1473 78.0352 71.8675 77.678 73.2288 78.9078C73.7441 79.37 74.0469 80.0248 74.0669 80.718C74.0855 81.5707 73.7548 82.2467 73.1704 82.8563C72.3921 83.6957 71.2486 83.6997 70.1741 83.7037C68.3772 83.709 66.5696 83.6997 64.77 83.693L34.2053 83.6944L24.1363 83.6784C21.7002 83.6758 15.7664 84.5683 15.5263 81.2148C15.2115 76.8173 21.9366 77.9369 25.0752 77.8944Z" fill="#9DBEFF"/>
<path d="M23.3578 93.8397L49.4257 93.8371L57.8285 93.8424C59.5392 93.845 63.2127 93.5157 64.4532 94.6326C65.0429 95.1639 65.3856 95.9169 65.4002 96.7098C65.4799 100.275 60.332 99.4962 57.9613 99.479L31.0596 99.4803L22.7068 99.4816C20.9579 99.4803 17.7311 99.8229 16.4646 98.7073C15.9169 98.2292 15.5934 97.5439 15.5724 96.8161C15.4507 92.995 20.751 93.8517 23.3578 93.8397Z" fill="#9DBEFF"/>
<path d="M19.4865 110.037L39.0963 110.046C42.1342 110.041 46.1606 109.944 49.1114 110.125C51.9477 110.299 52.857 115.45 48.0003 115.627L28.1222 115.648C24.8803 115.65 21.5693 115.705 18.3613 115.582C16.172 115.497 14.3677 112.684 16.2921 110.972C17.4988 109.899 17.9459 110.049 19.4865 110.037Z" fill="#9DBEFF"/>
<path d="M96.4809 110.04C98.8118 110.027 103.523 109.593 105.447 110.795C107.203 111.89 106.268 115.378 103.954 115.571C101.897 115.743 99.7773 115.661 97.6656 115.661L84.8943 115.648C82.4174 115.668 77.8486 116.147 75.8432 114.754C74.1166 113.554 75.389 110.251 77.5923 110.115C79.5965 109.99 81.6311 110.042 83.6738 110.043L96.4809 110.04Z" fill="#9DBEFF"/>
<path d="M92.0373 94.0991C94.404 94.0659 103.81 93.5798 105.253 94.6901C105.842 95.1443 106.22 95.8177 106.303 96.5561C106.503 98.4195 105.168 99.6321 103.383 99.7556L96.0071 99.7888C93.7585 99.8074 89.219 100.489 88.9414 97.3663C88.7488 95.1935 89.9933 94.2439 92.0373 94.0991Z" fill="#9DBEFF"/>
<path d="M91.8595 78.5526C95.4972 78.4251 99.2372 78.5606 102.863 78.5101C107.3 78.449 107.312 83.7137 103.52 84.0869L95.8558 84.1374C94.5144 84.1453 93.0429 84.2184 91.724 84.0802C87.6679 83.6552 87.6799 79.0267 91.8595 78.5526Z" fill="#9DBEFF"/>
</svg>
