<svg width="64" height="65" viewBox="0 0 64 65" fill="none" xmlns="http://www.w3.org/2000/svg">
<g clip-path="url(#clip0_579_9747)">
<path d="M64 32C64 14.3269 49.6731 0 32 0C14.3269 0 0 14.3269 0 32V33C0 50.6731 14.3269 65 32 65C49.6731 65 64 50.6731 64 33V32Z" fill="#9DBEFF"/>
<path d="M20.1667 45.5234L32.3542 33.7644C33.6713 32.4472 34.6869 31.3681 35.401 30.5271C36.131 29.6701 36.6864 28.8291 37.0673 28.0039C37.4481 27.1628 37.6386 26.2741 37.6386 25.3379C37.6386 24.2905 37.3847 23.3701 36.8769 22.5766C36.369 21.7832 35.6629 21.1722 34.7583 20.7437C33.8697 20.3153 32.862 20.101 31.7353 20.101C30.5609 20.101 29.5294 20.3391 28.6408 20.8152C27.768 21.2754 27.0935 21.9419 26.6175 22.8147C26.1414 23.6716 25.9113 24.6714 25.9272 25.8139H20.0238C20.008 23.6716 20.4999 21.7911 21.4997 20.1725C22.4994 18.5379 23.888 17.2763 25.6653 16.3877C27.4585 15.499 29.4977 15.0547 31.7829 15.0547C34.0998 15.0547 36.1469 15.4831 37.9242 16.3401C39.7174 17.197 41.106 18.3872 42.0899 19.9106C43.0896 21.4182 43.5895 23.132 43.5895 25.0522C43.5895 26.3852 43.3277 27.6706 42.804 28.9084C42.2962 30.1462 41.4234 31.5189 40.1856 33.0265C38.9478 34.5182 37.1942 36.3352 34.925 38.4775L28.7836 44.5713V44.8093H44.1132V49.9985H20.1667V45.5234Z" fill="#F5F6FA"/>
</g>
<defs>
<clipPath id="clip0_579_9747">
<rect width="64" height="65" fill="white"/>
</clipPath>
</defs>
</svg>
